  0
SECTION
  2
HEADER
  9
$ACADVER
  1
AC1021
  9
$ACADMAINTVER
 70
    25
  9
$DWGCODEPAGE
  3
ANSI_1252
  9
$INSBASE
 10
0.0
 20
0.0
 30
0.0
  9
$EXTMIN
 10
-121.2881
 20
6.7119
 30
0.0
  9
$EXTMAX
 10
74.2881
 20
123.2205
 30
0.0
  9
$LIMMIN
 10
0.0
 20
0.0
  9
$LIMMAX
 10
12.0
 20
9.0
  9
$ORTHOMODE
 70
     0
  9
$REGENMODE
 70
     1
  9
$FILLMODE
 70
     1
  9
$QTEXTMODE
 70
     0
  9
$MIRRTEXT
 70
     1
  9
$LTSCALE
 40
1.0
  9
$ATTMODE
 70
     1
  9
$TEXTSIZE
 40
0.2
  9
$TRACEWID
 40
0.05
  9
$TEXTSTYLE
  7
Standard
  9
$CLAYER
  8
0
  9
$CELTYPE
  6
ByLayer
  9
$CECOLOR
 62
   256
  9
$CELTSCALE
 40
1.0
  9
$DISPSILH
 70
     0
  9
$DIMSCALE
 40
1.0
  9
$DIMASZ
 40
0.18
  9
$DIMEXO
 40
0.0625
  9
$DIMDLI
 40
0.38
  9
$DIMRND
 40
0.0
  9
$DIMDLE
 40
0.0
  9
$DIMEXE
 40
0.18
  9
$DIMTP
 40
0.0
  9
$DIMTM
 40
0.0
  9
$DIMTXT
 40
0.18
  9
$DIMCEN
 40
0.09
  9
$DIMTSZ
 40
0.0
  9
$DIMTOL
 70
     0
  9
$DIMLIM
 70
     0
  9
$DIMTIH
 70
     1
  9
$DIMTOH
 70
     1
  9
$DIMSE1
 70
     0
  9
$DIMSE2
 70
     0
  9
$DIMTAD
 70
     0
  9
$DIMZIN
 70
     0
  9
$DIMBLK
  1

  9
$DIMASO
 70
     1
  9
$DIMSHO
 70
     1
  9
$DIMPOST
  1

  9
$DIMAPOST
  1

  9
$DIMALT
 70
     0
  9
$DIMALTD
 70
     2
  9
$DIMALTF
 40
25.4
  9
$DIMLFAC
 40
1.0
  9
$DIMTOFL
 70
     0
  9
$DIMTVP
 40
0.0
  9
$DIMTIX
 70
     0
  9
$DIMSOXD
 70
     0
  9
$DIMSAH
 70
     0
  9
$DIMBLK1
  1

  9
$DIMBLK2
  1

  9
$DIMSTYLE
  2
Standard
  9
$DIMCLRD
 70
     0
  9
$DIMCLRE
 70
     0
  9
$DIMCLRT
 70
     0
  9
$DIMTFAC
 40
1.0
  9
$DIMGAP
 40
0.09
  9
$DIMJUST
 70
     0
  9
$DIMSD1
 70
     0
  9
$DIMSD2
 70
     0
  9
$DIMTOLJ
 70
     1
  9
$DIMTZIN
 70
     0
  9
$DIMALTZ
 70
     0
  9
$DIMALTTZ
 70
     0
  9
$DIMUPT
 70
     0
  9
$DIMDEC
 70
     4
  9
$DIMTDEC
 70
     4
  9
$DIMALTU
 70
     2
  9
$DIMALTTD
 70
     2
  9
$DIMTXSTY
  7
Standard
  9
$DIMAUNIT
 70
     0
  9
$DIMADEC
 70
     0
  9
$DIMALTRND
 40
0.0
  9
$DIMAZIN
 70
     0
  9
$DIMDSEP
 70
    46
  9
$DIMATFIT
 70
     3
  9
$DIMFRAC
 70
     0
  9
$DIMLDRBLK
  1

  9
$DIMLUNIT
 70
     2
  9
$DIMLWD
 70
    -2
  9
$DIMLWE
 70
    -2
  9
$DIMTMOVE
 70
     0
  9
$DIMFXL
 40
1.0
  9
$DIMFXLON
 70
     0
  9
$DIMJOGANG
 40
0.7853981633974483
  9
$DIMTFILL
 70
     0
  9
$DIMTFILLCLR
 70
     0
  9
$DIMARCSYM
 70
     0
  9
$DIMLTYPE
  6

  9
$DIMLTEX1
  6

  9
$DIMLTEX2
  6

  9
$LUNITS
 70
     2
  9
$LUPREC
 70
     4
  9
$SKETCHINC
 40
0.1
  9
$FILLETRAD
 40
0.5
  9
$AUNITS
 70
     0
  9
$AUPREC
 70
     0
  9
$MENU
  1
.
  9
$ELEVATION
 40
0.0
  9
$PELEVATION
 40
0.0
  9
$THICKNESS
 40
0.0
  9
$LIMCHECK
 70
     0
  9
$CHAMFERA
 40
0.5
  9
$CHAMFERB
 40
0.5
  9
$CHAMFERC
 40
1.0
  9
$CHAMFERD
 40
0.0
  9
$SKPOLY
 70
     0
  9
$TDCREATE
 40
2456938.833761076
  9
$TDUCREATE
 40
2456939.125427743
  9
$TDUPDATE
 40
2456938.833761088
  9
$TDUUPDATE
 40
2456939.125427755
  9
$TDINDWG
 40
0.0000000116
  9
$TDUSRTIMER
 40
0.0000000116
  9
$USRTIMER
 70
     1
  9
$ANGBASE
 50
0.0
  9
$ANGDIR
 70
     0
  9
$PDMODE
 70
     0
  9
$PDSIZE
 40
0.0
  9
$PLINEWID
 40
0.0
  9
$SPLFRAME
 70
     0
  9
$SPLINETYPE
 70
     6
  9
$SPLINESEGS
 70
     8
  9
$HANDSEED
  5
6D
  9
$SURFTAB1
 70
     6
  9
$SURFTAB2
 70
     6
  9
$SURFTYPE
 70
     6
  9
$SURFU
 70
     6
  9
$SURFV
 70
     6
  9
$UCSBASE
  2

  9
$UCSNAME
  2

  9
$UCSORG
 10
0.0
 20
0.0
 30
0.0
  9
$UCSXDIR
 10
1.0
 20
0.0
 30
0.0
  9
$UCSYDIR
 10
0.0
 20
1.0
 30
0.0
  9
$UCSORTHOREF
  2

  9
$UCSORTHOVIEW
 70
     0
  9
$UCSORGTOP
 10
0.0
 20
0.0
 30
0.0
  9
$UCSORGBOTTOM
 10
0.0
 20
0.0
 30
0.0
  9
$UCSORGLEFT
 10
0.0
 20
0.0
 30
0.0
  9
$UCSORGRIGHT
 10
0.0
 20
0.0
 30
0.0
  9
$UCSORGFRONT
 10
0.0
 20
0.0
 30
0.0
  9
$UCSORGBACK
 10
0.0
 20
0.0
 30
0.0
  9
$PUCSBASE
  2

  9
$PUCSNAME
  2

  9
$PUCSORG
 10
0.0
 20
0.0
 30
0.0
  9
$PUCSXDIR
 10
1.0
 20
0.0
 30
0.0
  9
$PUCSYDIR
 10
0.0
 20
1.0
 30
0.0
  9
$PUCSORTHOREF
  2

  9
$PUCSORTHOVIEW
 70
     0
  9
$PUCSORGTOP
 10
0.0
 20
0.0
 30
0.0
  9
$PUCSORGBOTTOM
 10
0.0
 20
0.0
 30
0.0
  9
$PUCSORGLEFT
 10
0.0
 20
0.0
 30
0.0
  9
$PUCSORGRIGHT
 10
0.0
 20
0.0
 30
0.0
  9
$PUCSORGFRONT
 10
0.0
 20
0.0
 30
0.0
  9
$PUCSORGBACK
 10
0.0
 20
0.0
 30
0.0
  9
$USERI1
 70
     0
  9
$USERI2
 70
     0
  9
$USERI3
 70
     0
  9
$USERI4
 70
     0
  9
$USERI5
 70
     0
  9
$USERR1
 40
0.0
  9
$USERR2
 40
0.0
  9
$USERR3
 40
0.0
  9
$USERR4
 40
0.0
  9
$USERR5
 40
0.0
  9
$WORLDVIEW
 70
     1
  9
$SHADEDGE
 70
     3
  9
$SHADEDIF
 70
    70
  9
$TILEMODE
 70
     1
  9
$MAXACTVP
 70
    64
  9
$PINSBASE
 10
0.0
 20
0.0
 30
0.0
  9
$PLIMCHECK
 70
     0
  9
$PEXTMIN
 10
1.000000000000000E+20
 20
1.000000000000000E+20
 30
1.000000000000000E+20
  9
$PEXTMAX
 10
-1.000000000000000E+20
 20
-1.000000000000000E+20
 30
-1.000000000000000E+20
  9
$PLIMMIN
 10
0.0
 20
0.0
  9
$PLIMMAX
 10
12.0
 20
9.0
  9
$UNITMODE
 70
     0
  9
$VISRETAIN
 70
     1
  9
$PLINEGEN
 70
     0
  9
$PSLTSCALE
 70
     1
  9
$TREEDEPTH
 70
  3020
  9
$CMLSTYLE
  2
Standard
  9
$CMLJUST
 70
     0
  9
$CMLSCALE
 40
1.0
  9
$PROXYGRAPHICS
 70
     1
  9
$MEASUREMENT
 70
     0
  9
$CELWEIGHT
370
    -1
  9
$ENDCAPS
280
     0
  9
$JOINSTYLE
280
     0
  9
$LWDISPLAY
290
     0
  9
$INSUNITS
 70
     4
  9
$HYPERLINKBASE
  1

  9
$STYLESHEET
  1

  9
$XEDIT
290
     1
  9
$CEPSNTYPE
380
     0
  9
$PSTYLEMODE
290
     1
  9
$FINGERPRINTGUID
  2
{94866CBD-A1B1-4230-BB37-4D4C11E23F5C}
  9
$VERSIONGUID
  2
{FAEB1C32-E019-11D5-929B-00C0DF256EC4}
  9
$EXTNAMES
290
     1
  9
$PSVPSCALE
 40
0.0
  9
$OLESTARTUP
290
     0
  9
$SORTENTS
280
   127
  9
$INDEXCTL
280
     0
  9
$HIDETEXT
280
     1
  9
$XCLIPFRAME
290
     0
  9
$HALOGAP
280
     0
  9
$OBSCOLOR
 70
   257
  9
$OBSLTYPE
280
     0
  9
$INTERSECTIONDISPLAY
280
     0
  9
$INTERSECTIONCOLOR
 70
   257
  9
$DIMASSOC
280
     2
  9
$PROJECTNAME
  1

  9
$CAMERADISPLAY
290
     0
  9
$LENSLENGTH
 40
50.0
  9
$CAMERAHEIGHT
 40
0.0
  9
$STEPSPERSEC
 40
2.0
  9
$STEPSIZE
 40
6.0
  9
$3DDWFPREC
 40
2.0
  9
$PSOLWIDTH
 40
0.25
  9
$PSOLHEIGHT
 40
4.0
  9
$LOFTANG1
 40
1.570796326794897
  9
$LOFTANG2
 40
1.570796326794897
  9
$LOFTMAG1
 40
0.0
  9
$LOFTMAG2
 40
0.0
  9
$LOFTPARAM
 70
     7
  9
$LOFTNORMALS
280
     1
  9
$LATITUDE
 40
37.795
  9
$LONGITUDE
 40
-122.394
  9
$NORTHDIRECTION
 40
0.0
  9
$TIMEZONE
 70
 -8000
  9
$LIGHTGLYPHDISPLAY
280
     1
  9
$TILEMODELIGHTSYNCH
280
     1
  9
$SOLIDHIST
280
     1
  9
$SHOWHIST
280
     1
  9
$DWFFRAME
280
     2
  9
$DGNFRAME
280
     2
  9
$REALWORLDSCALE
290
     1
  9
$INTERFERECOLOR
 62
   256
  9
$CSHADOW
280
     0
  9
$SHADOWPLANELOCATION
 40
0.0
  0
ENDSEC
  0
SECTION
  2
CLASSES
  0
CLASS
  1
ACDBDICTIONARYWDFLT
  2
AcDbDictionaryWithDefault
  3
ObjectDBX Classes
 90
        0
 91
        4
280
     0
281
     0
  0
CLASS
  1
VISUALSTYLE
  2
AcDbVisualStyle
  3
ObjectDBX Classes
 90
     4095
 91
        4
280
     0
281
     0
  0
CLASS
  1
MATERIAL
  2
AcDbMaterial
  3
ObjectDBX Classes
 90
     1153
 91
        4
280
     0
281
     0
  0
ENDSEC
  0
SECTION
  2
TABLES
  0
TABLE
  2
VPORT
  5
8
330
0
100
AcDbSymbolTable
 70
     1
  0
VPORT
  5
29
330
8
100
AcDbSymbolTableRecord
100
AcDbViewportTableRecord
  2
*Active
 70
     0
 10
0.0
 20
0.0
 11
1.0
 21
1.0
 12
10.42990654205607
 22
4.5
 13
0.0
 23
0.0
 14
0.5
 24
0.5
 15
0.5
 25
0.5
 16
0.0
 26
0.0
 36
1.0
 17
0.0
 27
0.0
 37
0.0
 40
9.0
 41
1.972972972850329
 42
50.0
 43
0.0
 44
0.0
 50
0.0
 51
0.0
 71
     0
 72
   100
 73
     1
 74
     3
 75
     0
 76
     0
 77
     0
 78
     0
281
     0
 65
     1
110
0.0
120
0.0
130
0.0
111
1.0
121
0.0
131
0.0
112
0.0
122
1.0
132
0.0
 79
     0
146
0.0
 60
     3
 61
     5
292
     1
282
     1
141
0.0
142
0.0
 63
   250
  0
ENDTAB
  0
TABLE
  2
LTYPE
  5
5
330
0
100
AcDbSymbolTable
 70
     1
  0
LTYPE
  5
14
330
5
100
AcDbSymbolTableRecord
100
AcDbLinetypeTableRecord
  2
ByBlock
 70
     0
  3

 72
    65
 73
     0
 40
0.0
  0
LTYPE
  5
15
330
5
100
AcDbSymbolTableRecord
100
AcDbLinetypeTableRecord
  2
ByLayer
 70
     0
  3

 72
    65
 73
     0
 40
0.0
  0
LTYPE
  5
16
330
5
100
AcDbSymbolTableRecord
100
AcDbLinetypeTableRecord
  2
Continuous
 70
     0
  3
Solid line
 72
    65
 73
     0
 40
0.0
  0
ENDTAB
  0
TABLE
  2
LAYER
  5
2
330
0
100
AcDbSymbolTable
 70
     3
  0
LAYER
  5
10
330
2
100
AcDbSymbolTableRecord
100
AcDbLayerTableRecord
  2
0
 70
     0
 62
     7
  6
Continuous
370
    -3
390
F
347
3E
  0
LAYER
  5
40
330
2
100
AcDbSymbolTableRecord
100
AcDbLayerTableRecord
  2
Layer 1
 70
     0
 62
     7
  6
Continuous
370
    -3
390
F
347
3E
  0
LAYER
  5
47
330
2
100
AcDbSymbolTableRecord
100
AcDbLayerTableRecord
  2
LAYER_1
 70
     0
 62
     7
  6
Continuous
370
    -3
390
F
347
3E
  0
ENDTAB
  0
TABLE
  2
STYLE
  5
3
330
0
100
AcDbSymbolTable
 70
     1
  0
STYLE
  5
11
330
3
100
AcDbSymbolTableRecord
100
AcDbTextStyleTableRecord
  2
Standard
 70
     0
 40
0.0
 41
1.0
 50
0.0
 71
     0
 42
0.2
  3
txt
  4

  0
ENDTAB
  0
TABLE
  2
VIEW
  5
6
330
0
100
AcDbSymbolTable
 70
     0
  0
ENDTAB
  0
TABLE
  2
UCS
  5
7
330
0
100
AcDbSymbolTable
 70
     0
  0
ENDTAB
  0
TABLE
  2
APPID
  5
9
330
0
100
AcDbSymbolTable
 70
     2
  0
APPID
  5
12
330
9
100
AcDbSymbolTableRecord
100
AcDbRegAppTableRecord
  2
ACAD
 70
     0
  0
APPID
  5
3F
330
9
100
AcDbSymbolTableRecord
100
AcDbRegAppTableRecord
  2
ODA
 70
     0
  0
ENDTAB
  0
TABLE
  2
DIMSTYLE
  5
A
330
0
100
AcDbSymbolTable
 70
     1
100
AcDbDimStyleTable
  0
DIMSTYLE
105
27
330
A
100
AcDbSymbolTableRecord
100
AcDbDimStyleTableRecord
  2
Standard
 70
     0
178
     0
340
11
  0
ENDTAB
  0
TABLE
  2
BLOCK_RECORD
  5
1
330
0
100
AcDbSymbolTable
 70
     1
  0
BLOCK_RECORD
  5
1F
330
1
100
AcDbSymbolTableRecord
100
AcDbBlockTableRecord
  2
*Model_Space
340
22
 70
     0
280
     1
281
     0
  0
BLOCK_RECORD
  5
1B
330
1
100
AcDbSymbolTableRecord
100
AcDbBlockTableRecord
  2
*Paper_Space
340
1E
 70
     0
280
     1
281
     0
  0
BLOCK_RECORD
  5
23
330
1
100
AcDbSymbolTableRecord
100
AcDbBlockTableRecord
  2
*Paper_Space0
340
26
 70
     0
280
     1
281
     0
  0
ENDTAB
  0
ENDSEC
  0
SECTION
  2
BLOCKS
  0
BLOCK
  5
20
330
1F
100
AcDbEntity
  8
0
100
AcDbBlockBegin
  2
*Model_Space
 70
     0
 10
0.0
 20
0.0
 30
0.0
  3
*Model_Space
  1

  0
ENDBLK
  5
21
330
1F
100
AcDbEntity
  8
0
100
AcDbBlockEnd
  0
BLOCK
  5
1C
330
1B
100
AcDbEntity
 67
     1
  8
0
100
AcDbBlockBegin
  2
*Paper_Space
 70
     0
 10
0.0
 20
0.0
 30
0.0
  3
*Paper_Space
  1

  0
ENDBLK
  5
1D
330
1B
100
AcDbEntity
 67
     1
  8
0
100
AcDbBlockEnd
  0
BLOCK
  5
24
330
23
100
AcDbEntity
  8
0
100
AcDbBlockBegin
  2
*Paper_Space0
 70
     0
 10
0.0
 20
0.0
 30
0.0
  3
*Paper_Space0
  1

  0
ENDBLK
  5
25
330
23
100
AcDbEntity
  8
0
100
AcDbBlockEnd
  0
ENDSEC
  0
SECTION
  2
ENTITIES
  0
SPLINE
  5
41
330
1F
100
AcDbEntity
  8
Layer 1
 62
   250
370
     9
100
AcDbSpline
210
0.0
220
0.0
230
1.0
 70
    11
 71
     3
 72
   120
 73
   116
 74
     0
 42
0.0000000001
 43
0.0000000001
 40
0.0
 40
0.0
 40
0.0
 40
0.0
 40
0.0333333333333333
 40
0.0333333333333333
 40
0.0333333333333333
 40
0.0333333333333333
 40
0.0666666666666667
 40
0.0666666666666667
 40
0.0666666666666667
 40
0.0666666666666667
 40
0.1
 40
0.1
 40
0.1
 40
0.1
 40
0.1333333333333333
 40
0.1333333333333333
 40
0.1333333333333333
 40
0.1333333333333333
 40
0.1666666666666667
 40
0.1666666666666667
 40
0.1666666666666667
 40
0.1666666666666667
 40
0.2
 40
0.2
 40
0.2
 40
0.2
 40
0.2333333333333333
 40
0.2333333333333333
 40
0.2333333333333333
 40
0.2333333333333333
 40
0.2666666666666667
 40
0.2666666666666667
 40
0.2666666666666667
 40
0.2666666666666667
 40
0.3
 40
0.3
 40
0.3
 40
0.3
 40
0.3333333333333333
 40
0.3333333333333333
 40
0.3333333333333333
 40
0.3333333333333333
 40
0.3666666666666666
 40
0.3666666666666666
 40
0.3666666666666666
 40
0.3666666666666666
 40
0.4
 40
0.4
 40
0.4
 40
0.4
 40
0.4333333333333333
 40
0.4333333333333333
 40
0.4333333333333333
 40
0.4333333333333333
 40
0.4666666666666667
 40
0.4666666666666667
 40
0.4666666666666667
 40
0.4666666666666667
 40
0.5
 40
0.5
 40
0.5
 40
0.5
 40
0.5333333333333333
 40
0.5333333333333333
 40
0.5333333333333333
 40
0.5333333333333333
 40
0.5666666666666667
 40
0.5666666666666667
 40
0.5666666666666667
 40
0.5666666666666667
 40
0.6
 40
0.6
 40
0.6
 40
0.6
 40
0.6333333333333333
 40
0.6333333333333333
 40
0.6333333333333333
 40
0.6333333333333333
 40
0.6666666666666666
 40
0.6666666666666666
 40
0.6666666666666666
 40
0.6666666666666666
 40
0.7
 40
0.7
 40
0.7
 40
0.7
 40
0.7333333333333333
 40
0.7333333333333333
 40
0.7333333333333333
 40
0.7333333333333333
 40
0.7666666666666667
 40
0.7666666666666667
 40
0.7666666666666667
 40
0.7666666666666667
 40
0.8
 40
0.8
 40
0.8
 40
0.8
 40
0.8333333333333334
 40
0.8333333333333334
 40
0.8333333333333334
 40
0.8333333333333334
 40
0.8666666666666667
 40
0.8666666666666667
 40
0.8666666666666667
 40
0.8666666666666667
 40
0.9
 40
0.9
 40
0.9
 40
0.9
 40
0.9333333333333333
 40
0.9333333333333333
 40
0.9333333333333333
 40
0.9333333333333333
 40
1.0
 40
1.0
 40
1.0
 40
1.0
 10
-36.5571
 20
120.1824
 30
0.0
 10
-36.5571
 20
120.1824
 30
0.0
 10
-36.5571
 20
123.1824
 30
0.0
 10
-36.5571
 20
123.1824
 30
0.0
 10
-36.5571
 20
123.1824
 30
0.0
 10
-36.5571
 20
123.1824
 30
0.0
 10
-42.5571
 20
123.1824
 30
0.0
 10
-42.5571
 20
123.1824
 30
0.0
 10
-42.5571
 20
123.1824
 30
0.0
 10
-42.5571
 20
123.1824
 30
0.0
 10
-42.5571
 20
120.1824
 30
0.0
 10
-42.5571
 20
120.1824
 30
0.0
 10
-42.5571
 20
120.1824
 30
0.0
 10
-42.5571
 20
120.1824
 30
0.0
 10
-50.5571
 20
120.1824
 30
0.0
 10
-50.5571
 20
120.1824
 30
0.0
 10
-50.5571
 20
120.1824
 30
0.0
 10
-50.5571
 20
120.1824
 30
0.0
 10
-50.5571
 20
86.6824
 30
0.0
 10
-50.5571
 20
86.6824
 30
0.0
 10
-50.5571
 20
86.6824
 30
0.0
 10
-50.5571
 20
86.6824
 30
0.0
 10
-47.5571
 20
86.6824
 30
0.0
 10
-47.5571
 20
86.6824
 30
0.0
 10
-47.5571
 20
86.6824
 30
0.0
 10
-47.5571
 20
86.6824
 30
0.0
 10
-47.5571
 20
76.6824
 30
0.0
 10
-47.5571
 20
76.6824
 30
0.0
 10
-47.5571
 20
76.6824
 30
0.0
 10
-47.5571
 20
76.6824
 30
0.0
 10
-50.5571
 20
76.6824
 30
0.0
 10
-50.5571
 20
76.6824
 30
0.0
 10
-50.5571
 20
76.6824
 30
0.0
 10
-50.5571
 20
76.6824
 30
0.0
 10
-50.5571
 20
43.1824
 30
0.0
 10
-50.5571
 20
43.1824
 30
0.0
 10
-50.5571
 20
43.1824
 30
0.0
 10
-50.5571
 20
43.1824
 30
0.0
 10
-36.5571
 20
43.1824
 30
0.0
 10
-36.5571
 20
43.1824
 30
0.0
 10
-36.5571
 20
43.1824
 30
0.0
 10
-36.5571
 20
43.1824
 30
0.0
 10
-36.6047
 20
43.1824
 30
0.0
 10
-36.6047
 20
43.1824
 30
0.0
 10
-36.6047
 20
43.1824
 30
0.0
 10
-36.6047
 20
43.1824
 30
0.0
 10
-36.6047
 20
40.1824
 30
0.0
 10
-36.6047
 20
40.1824
 30
0.0
 10
-36.6047
 20
40.1824
 30
0.0
 10
-36.6047
 20
40.1824
 30
0.0
 10
-32.6047
 20
40.1824
 30
0.0
 10
-32.6047
 20
40.1824
 30
0.0
 10
-32.6047
 20
40.1824
 30
0.0
 10
-32.6047
 20
40.1824
 30
0.0
 10
-32.6047
 20
43.1824
 30
0.0
 10
-32.6047
 20
43.1824
 30
0.0
 10
-32.6047
 20
43.1824
 30
0.0
 10
-32.6047
 20
43.1824
 30
0.0
 10
-23.5572
 20
43.1824
 30
0.0
 10
-23.5572
 20
43.1824
 30
0.0
 10
-23.5572
 20
43.1824
 30
0.0
 10
-23.5572
 20
43.1824
 30
0.0
 10
-23.5572
 20
40.1824
 30
0.0
 10
-23.5572
 20
40.1824
 30
0.0
 10
-23.5572
 20
40.1824
 30
0.0
 10
-23.5572
 20
40.1824
 30
0.0
 10
-17.5572
 20
40.1824
 30
0.0
 10
-17.5572
 20
40.1824
 30
0.0
 10
-17.5572
 20
40.1824
 30
0.0
 10
-17.5572
 20
40.1824
 30
0.0
 10
-17.5572
 20
43.1824
 30
0.0
 10
-17.5572
 20
43.1824
 30
0.0
 10
-17.5572
 20
43.1824
 30
0.0
 10
-17.5572
 20
43.1824
 30
0.0
 10
9.4429
 20
43.1824
 30
0.0
 10
9.4429
 20
43.1824
 30
0.0
 10
9.4429
 20
43.1824
 30
0.0
 10
9.4429
 20
43.1824
 30
0.0
 10
9.4429
 20
76.6824
 30
0.0
 10
9.4429
 20
76.6824
 30
0.0
 10
9.4429
 20
76.6824
 30
0.0
 10
9.4429
 20
76.6824
 30
0.0
 10
6.4429
 20
76.6824
 30
0.0
 10
6.4429
 20
76.6824
 30
0.0
 10
6.4429
 20
76.6824
 30
0.0
 10
6.4429
 20
76.6824
 30
0.0
 10
6.4429
 20
86.6824
 30
0.0
 10
6.4429
 20
86.6824
 30
0.0
 10
6.4429
 20
86.6824
 30
0.0
 10
6.4429
 20
86.6824
 30
0.0
 10
9.4429
 20
86.6824
 30
0.0
 10
9.4429
 20
86.6824
 30
0.0
 10
9.4429
 20
86.6824
 30
0.0
 10
9.4429
 20
86.6824
 30
0.0
 10
9.4429
 20
120.1824
 30
0.0
 10
9.4429
 20
120.1824
 30
0.0
 10
9.4429
 20
120.1824
 30
0.0
 10
9.4429
 20
120.1824
 30
0.0
 10
1.4429
 20
120.1824
 30
0.0
 10
1.4429
 20
120.1824
 30
0.0
 10
1.4429
 20
120.1824
 30
0.0
 10
1.4429
 20
120.1824
 30
0.0
 10
1.4429
 20
123.1824
 30
0.0
 10
1.4429
 20
123.1824
 30
0.0
 10
1.4429
 20
123.1824
 30
0.0
 10
1.4429
 20
123.1824
 30
0.0
 10
-4.5571
 20
123.1824
 30
0.0
 10
-4.5571
 20
123.1824
 30
0.0
 10
-4.5571
 20
123.1824
 30
0.0
 10
-4.5571
 20
123.1824
 30
0.0
 10
-4.5571
 20
120.1824
 30
0.0
 10
-4.5571
 20
120.1824
 30
0.0
 10
-4.5571
 20
120.1824
 30
0.0
 10
-4.5571
 20
120.1824
 30
0.0
 10
-36.5571
 20
120.1824
 30
0.0
 10
-36.5571
 20
120.1824
 30
0.0
  0
SPLINE
  5
42
330
1F
100
AcDbEntity
  8
Layer 1
 62
   250
370
     9
100
AcDbSpline
210
0.0
220
0.0
230
1.0
 70
     8
 71
     3
 72
   376
 73
   372
 74
     0
 42
0.0000000001
 43
0.0000000001
 40
0.0
 40
0.0
 40
0.0
 40
0.0
 40
0.0106382978723404
 40
0.0106382978723404
 40
0.0106382978723404
 40
0.0106382978723404
 40
0.0212765957446809
 40
0.0212765957446809
 40
0.0212765957446809
 40
0.0212765957446809
 40
0.0319148936170213
 40
0.0319148936170213
 40
0.0319148936170213
 40
0.0319148936170213
 40
0.0425531914893617
 40
0.0425531914893617
 40
0.0425531914893617
 40
0.0425531914893617
 40
0.0531914893617021
 40
0.0531914893617021
 40
0.0531914893617021
 40
0.0531914893617021
 40
0.0638297872340425
 40
0.0638297872340425
 40
0.0638297872340425
 40
0.0638297872340425
 40
0.074468085106383
 40
0.074468085106383
 40
0.074468085106383
 40
0.074468085106383
 40
0.0851063829787234
 40
0.0851063829787234
 40
0.0851063829787234
 40
0.0851063829787234
 40
0.0957446808510638
 40
0.0957446808510638
 40
0.0957446808510638
 40
0.0957446808510638
 40
0.1063829787234043
 40
0.1063829787234043
 40
0.1063829787234043
 40
0.1063829787234043
 40
0.1170212765957447
 40
0.1170212765957447
 40
0.1170212765957447
 40
0.1170212765957447
 40
0.1276595744680851
 40
0.1276595744680851
 40
0.1276595744680851
 40
0.1276595744680851
 40
0.1382978723404255
 40
0.1382978723404255
 40
0.1382978723404255
 40
0.1382978723404255
 40
0.148936170212766
 40
0.148936170212766
 40
0.148936170212766
 40
0.148936170212766
 40
0.1595744680851064
 40
0.1595744680851064
 40
0.1595744680851064
 40
0.1595744680851064
 40
0.1702127659574468
 40
0.1702127659574468
 40
0.1702127659574468
 40
0.1702127659574468
 40
0.1808510638297872
 40
0.1808510638297872
 40
0.1808510638297872
 40
0.1808510638297872
 40
0.1914893617021277
 40
0.1914893617021277
 40
0.1914893617021277
 40
0.1914893617021277
 40
0.2021276595744681
 40
0.2021276595744681
 40
0.2021276595744681
 40
0.2021276595744681
 40
0.2127659574468085
 40
0.2127659574468085
 40
0.2127659574468085
 40
0.2127659574468085
 40
0.2234042553191489
 40
0.2234042553191489
 40
0.2234042553191489
 40
0.2234042553191489
 40
0.2340425531914894
 40
0.2340425531914894
 40
0.2340425531914894
 40
0.2340425531914894
 40
0.2446808510638298
 40
0.2446808510638298
 40
0.2446808510638298
 40
0.2446808510638298
 40
0.2553191489361702
 40
0.2553191489361702
 40
0.2553191489361702
 40
0.2553191489361702
 40
0.2659574468085106
 40
0.2659574468085106
 40
0.2659574468085106
 40
0.2659574468085106
 40
0.2765957446808511
 40
0.2765957446808511
 40
0.2765957446808511
 40
0.2765957446808511
 40
0.2872340425531915
 40
0.2872340425531915
 40
0.2872340425531915
 40
0.2872340425531915
 40
0.2978723404255319
 40
0.2978723404255319
 40
0.2978723404255319
 40
0.2978723404255319
 40
0.3085106382978723
 40
0.3085106382978723
 40
0.3085106382978723
 40
0.3085106382978723
 40
0.3191489361702128
 40
0.3191489361702128
 40
0.3191489361702128
 40
0.3191489361702128
 40
0.3297872340425532
 40
0.3297872340425532
 40
0.3297872340425532
 40
0.3297872340425532
 40
0.3404255319148936
 40
0.3404255319148936
 40
0.3404255319148936
 40
0.3404255319148936
 40
0.351063829787234
 40
0.351063829787234
 40
0.351063829787234
 40
0.351063829787234
 40
0.3617021276595745
 40
0.3617021276595745
 40
0.3617021276595745
 40
0.3617021276595745
 40
0.3723404255319149
 40
0.3723404255319149
 40
0.3723404255319149
 40
0.3723404255319149
 40
0.3829787234042553
 40
0.3829787234042553
 40
0.3829787234042553
 40
0.3829787234042553
 40
0.3936170212765958
 40
0.3936170212765958
 40
0.3936170212765958
 40
0.3936170212765958
 40
0.4042553191489361
 40
0.4042553191489361
 40
0.4042553191489361
 40
0.4042553191489361
 40
0.4148936170212766
 40
0.4148936170212766
 40
0.4148936170212766
 40
0.4148936170212766
 40
0.425531914893617
 40
0.425531914893617
 40
0.425531914893617
 40
0.425531914893617
 40
0.4361702127659575
 40
0.4361702127659575
 40
0.4361702127659575
 40
0.4361702127659575
 40
0.4468085106382979
 40
0.4468085106382979
 40
0.4468085106382979
 40
0.4468085106382979
 40
0.4574468085106383
 40
0.4574468085106383
 40
0.4574468085106383
 40
0.4574468085106383
 40
0.4680851063829787
 40
0.4680851063829787
 40
0.4680851063829787
 40
0.4680851063829787
 40
0.4787234042553192
 40
0.4787234042553192
 40
0.4787234042553192
 40
0.4787234042553192
 40
0.4893617021276596
 40
0.4893617021276596
 40
0.4893617021276596
 40
0.4893617021276596
 40
0.5
 40
0.5
 40
0.5
 40
0.5
 40
0.5106382978723404
 40
0.5106382978723404
 40
0.5106382978723404
 40
0.5106382978723404
 40
0.5212765957446809
 40
0.5212765957446809
 40
0.5212765957446809
 40
0.5212765957446809
 40
0.5319148936170213
 40
0.5319148936170213
 40
0.5319148936170213
 40
0.5319148936170213
 40
0.5425531914893617
 40
0.5425531914893617
 40
0.5425531914893617
 40
0.5425531914893617
 40
0.5531914893617021
 40
0.5531914893617021
 40
0.5531914893617021
 40
0.5531914893617021
 40
0.5638297872340425
 40
0.5638297872340425
 40
0.5638297872340425
 40
0.5638297872340425
 40
0.574468085106383
 40
0.574468085106383
 40
0.574468085106383
 40
0.574468085106383
 40
0.5851063829787234
 40
0.5851063829787234
 40
0.5851063829787234
 40
0.5851063829787234
 40
0.5957446808510638
 40
0.5957446808510638
 40
0.5957446808510638
 40
0.5957446808510638
 40
0.6063829787234043
 40
0.6063829787234043
 40
0.6063829787234043
 40
0.6063829787234043
 40
0.6170212765957447
 40
0.6170212765957447
 40
0.6170212765957447
 40
0.6170212765957447
 40
0.6276595744680851
 40
0.6276595744680851
 40
0.6276595744680851
 40
0.6276595744680851
 40
0.6382978723404256
 40
0.6382978723404256
 40
0.6382978723404256
 40
0.6382978723404256
 40
0.648936170212766
 40
0.648936170212766
 40
0.648936170212766
 40
0.648936170212766
 40
0.6595744680851063
 40
0.6595744680851063
 40
0.6595744680851063
 40
0.6595744680851063
 40
0.6702127659574468
 40
0.6702127659574468
 40
0.6702127659574468
 40
0.6702127659574468
 40
0.6808510638297872
 40
0.6808510638297872
 40
0.6808510638297872
 40
0.6808510638297872
 40
0.6914893617021277
 40
0.6914893617021277
 40
0.6914893617021277
 40
0.6914893617021277
 40
0.7021276595744681
 40
0.7021276595744681
 40
0.7021276595744681
 40
0.7021276595744681
 40
0.7127659574468085
 40
0.7127659574468085
 40
0.7127659574468085
 40
0.7127659574468085
 40
0.723404255319149
 40
0.723404255319149
 40
0.723404255319149
 40
0.723404255319149
 40
0.7340425531914894
 40
0.7340425531914894
 40
0.7340425531914894
 40
0.7340425531914894
 40
0.7446808510638298
 40
0.7446808510638298
 40
0.7446808510638298
 40
0.7446808510638298
 40
0.7553191489361702
 40
0.7553191489361702
 40
0.7553191489361702
 40
0.7553191489361702
 40
0.7659574468085106
 40
0.7659574468085106
 40
0.7659574468085106
 40
0.7659574468085106
 40
0.776595744680851
 40
0.776595744680851
 40
0.776595744680851
 40
0.776595744680851
 40
0.7872340425531915
 40
0.7872340425531915
 40
0.7872340425531915
 40
0.7872340425531915
 40
0.7978723404255319
 40
0.7978723404255319
 40
0.7978723404255319
 40
0.7978723404255319
 40
0.8085106382978723
 40
0.8085106382978723
 40
0.8085106382978723
 40
0.8085106382978723
 40
0.8191489361702128
 40
0.8191489361702128
 40
0.8191489361702128
 40
0.8191489361702128
 40
0.8297872340425532
 40
0.8297872340425532
 40
0.8297872340425532
 40
0.8297872340425532
 40
0.8404255319148937
 40
0.8404255319148937
 40
0.8404255319148937
 40
0.8404255319148937
 40
0.851063829787234
 40
0.851063829787234
 40
0.851063829787234
 40
0.851063829787234
 40
0.8617021276595744
 40
0.8617021276595744
 40
0.8617021276595744
 40
0.8617021276595744
 40
0.8723404255319149
 40
0.8723404255319149
 40
0.8723404255319149
 40
0.8723404255319149
 40
0.8829787234042553
 40
0.8829787234042553
 40
0.8829787234042553
 40
0.8829787234042553
 40
0.8936170212765957
 40
0.8936170212765957
 40
0.8936170212765957
 40
0.8936170212765957
 40
0.9042553191489362
 40
0.9042553191489362
 40
0.9042553191489362
 40
0.9042553191489362
 40
0.9148936170212766
 40
0.9148936170212766
 40
0.9148936170212766
 40
0.9148936170212766
 40
0.925531914893617
 40
0.925531914893617
 40
0.925531914893617
 40
0.925531914893617
 40
0.9361702127659575
 40
0.9361702127659575
 40
0.9361702127659575
 40
0.9361702127659575
 40
0.9468085106382979
 40
0.9468085106382979
 40
0.9468085106382979
 40
0.9468085106382979
 40
0.9574468085106383
 40
0.9574468085106383
 40
0.9574468085106383
 40
0.9574468085106383
 40
0.9680851063829787
 40
0.9680851063829787
 40
0.9680851063829787
 40
0.9680851063829787
 40
0.9787234042553191
 40
0.9787234042553191
 40
0.9787234042553191
 40
0.9787234042553191
 40
1.0
 40
1.0
 40
1.0
 40
1.0
 10
-86.1979
 20
38.75
 30
0.0
 10
-86.1979
 20
38.75
 30
0.0
 10
-86.1979
 20
46.75
 30
0.0
 10
-86.1979
 20
46.75
 30
0.0
 10
-86.1979
 20
46.75
 30
0.0
 10
-86.1979
 20
46.75
 30
0.0
 10
-86.2004
 20
46.8492
 30
0.0
 10
-86.2004
 20
46.8492
 30
0.0
 10
-86.2004
 20
46.8492
 30
0.0
 10
-86.2004
 20
46.8492
 30
0.0
 10
-86.2077
 20
46.9477
 30
0.0
 10
-86.2077
 20
46.9477
 30
0.0
 10
-86.2077
 20
46.9477
 30
0.0
 10
-86.2077
 20
46.9477
 30
0.0
 10
-86.2198
 20
47.0454
 30
0.0
 10
-86.2198
 20
47.0454
 30
0.0
 10
-86.2198
 20
47.0454
 30
0.0
 10
-86.2198
 20
47.0454
 30
0.0
 10
-86.2367
 20
47.142
 30
0.0
 10
-86.2367
 20
47.142
 30
0.0
 10
-86.2367
 20
47.142
 30
0.0
 10
-86.2367
 20
47.142
 30
0.0
 10
-86.2582
 20
47.2375
 30
0.0
 10
-86.2582
 20
47.2375
 30
0.0
 10
-86.2582
 20
47.2375
 30
0.0
 10
-86.2582
 20
47.2375
 30
0.0
 10
-86.2843
 20
47.3317
 30
0.0
 10
-86.2843
 20
47.3317
 30
0.0
 10
-86.2843
 20
47.3317
 30
0.0
 10
-86.2843
 20
47.3317
 30
0.0
 10
-86.315
 20
47.4244
 30
0.0
 10
-86.315
 20
47.4244
 30
0.0
 10
-86.315
 20
47.4244
 30
0.0
 10
-86.315
 20
47.4244
 30
0.0
 10
-86.3501
 20
47.5154
 30
0.0
 10
-86.3501
 20
47.5154
 30
0.0
 10
-86.3501
 20
47.5154
 30
0.0
 10
-86.3501
 20
47.5154
 30
0.0
 10
-86.3897
 20
47.6046
 30
0.0
 10
-86.3897
 20
47.6046
 30
0.0
 10
-86.3897
 20
47.6046
 30
0.0
 10
-86.3897
 20
47.6046
 30
0.0
 10
-86.4335
 20
47.6918
 30
0.0
 10
-86.4335
 20
47.6918
 30
0.0
 10
-86.4335
 20
47.6918
 30
0.0
 10
-86.4335
 20
47.6918
 30
0.0
 10
-86.4816
 20
47.7769
 30
0.0
 10
-86.4816
 20
47.7769
 30
0.0
 10
-86.4816
 20
47.7769
 30
0.0
 10
-86.4816
 20
47.7769
 30
0.0
 10
-86.5339
 20
47.8596
 30
0.0
 10
-86.5339
 20
47.8596
 30
0.0
 10
-86.5339
 20
47.8596
 30
0.0
 10
-86.5339
 20
47.8596
 30
0.0
 10
-86.5904
 20
47.9399
 30
0.0
 10
-86.5904
 20
47.9399
 30
0.0
 10
-86.5904
 20
47.9399
 30
0.0
 10
-86.5904
 20
47.9399
 30
0.0
 10
-86.6508
 20
48.0175
 30
0.0
 10
-86.6508
 20
48.0175
 30
0.0
 10
-86.6508
 20
48.0175
 30
0.0
 10
-86.6508
 20
48.0175
 30
0.0
 10
-86.7153
 20
48.0923
 30
0.0
 10
-86.7153
 20
48.0923
 30
0.0
 10
-86.7153
 20
48.0923
 30
0.0
 10
-86.7153
 20
48.0923
 30
0.0
 10
-86.7837
 20
48.1642
 30
0.0
 10
-86.7837
 20
48.1642
 30
0.0
 10
-86.7837
 20
48.1642
 30
0.0
 10
-86.7837
 20
48.1642
 30
0.0
 10
-86.8556
 20
48.2326
 30
0.0
 10
-86.8556
 20
48.2326
 30
0.0
 10
-86.8556
 20
48.2326
 30
0.0
 10
-86.8556
 20
48.2326
 30
0.0
 10
-86.9304
 20
48.2971
 30
0.0
 10
-86.9304
 20
48.2971
 30
0.0
 10
-86.9304
 20
48.2971
 30
0.0
 10
-86.9304
 20
48.2971
 30
0.0
 10
-87.008
 20
48.3575
 30
0.0
 10
-87.008
 20
48.3575
 30
0.0
 10
-87.008
 20
48.3575
 30
0.0
 10
-87.008
 20
48.3575
 30
0.0
 10
-87.0883
 20
48.414
 30
0.0
 10
-87.0883
 20
48.414
 30
0.0
 10
-87.0883
 20
48.414
 30
0.0
 10
-87.0883
 20
48.414
 30
0.0
 10
-87.171
 20
48.4663
 30
0.0
 10
-87.171
 20
48.4663
 30
0.0
 10
-87.171
 20
48.4663
 30
0.0
 10
-87.171
 20
48.4663
 30
0.0
 10
-87.2561
 20
48.5144
 30
0.0
 10
-87.2561
 20
48.5144
 30
0.0
 10
-87.2561
 20
48.5144
 30
0.0
 10
-87.2561
 20
48.5144
 30
0.0
 10
-87.3433
 20
48.5582
 30
0.0
 10
-87.3433
 20
48.5582
 30
0.0
 10
-87.3433
 20
48.5582
 30
0.0
 10
-87.3433
 20
48.5582
 30
0.0
 10
-87.4325
 20
48.5978
 30
0.0
 10
-87.4325
 20
48.5978
 30
0.0
 10
-87.4325
 20
48.5978
 30
0.0
 10
-87.4325
 20
48.5978
 30
0.0
 10
-87.5235
 20
48.6329
 30
0.0
 10
-87.5235
 20
48.6329
 30
0.0
 10
-87.5235
 20
48.6329
 30
0.0
 10
-87.5235
 20
48.6329
 30
0.0
 10
-87.6162
 20
48.6636
 30
0.0
 10
-87.6162
 20
48.6636
 30
0.0
 10
-87.6162
 20
48.6636
 30
0.0
 10
-87.6162
 20
48.6636
 30
0.0
 10
-87.7104
 20
48.6897
 30
0.0
 10
-87.7104
 20
48.6897
 30
0.0
 10
-87.7104
 20
48.6897
 30
0.0
 10
-87.7104
 20
48.6897
 30
0.0
 10
-87.8059
 20
48.7112
 30
0.0
 10
-87.8059
 20
48.7112
 30
0.0
 10
-87.8059
 20
48.7112
 30
0.0
 10
-87.8059
 20
48.7112
 30
0.0
 10
-87.9025
 20
48.7281
 30
0.0
 10
-87.9025
 20
48.7281
 30
0.0
 10
-87.9025
 20
48.7281
 30
0.0
 10
-87.9025
 20
48.7281
 30
0.0
 10
-88.0002
 20
48.7402
 30
0.0
 10
-88.0002
 20
48.7402
 30
0.0
 10
-88.0002
 20
48.7402
 30
0.0
 10
-88.0002
 20
48.7402
 30
0.0
 10
-88.0987
 20
48.7475
 30
0.0
 10
-88.0987
 20
48.7475
 30
0.0
 10
-88.0987
 20
48.7475
 30
0.0
 10
-88.0987
 20
48.7475
 30
0.0
 10
-88.1979
 20
48.75
 30
0.0
 10
-88.1979
 20
48.75
 30
0.0
 10
-88.1979
 20
48.75
 30
0.0
 10
-88.1979
 20
48.75
 30
0.0
 10
-106.1978
 20
48.75
 30
0.0
 10
-106.1978
 20
48.75
 30
0.0
 10
-106.1978
 20
48.75
 30
0.0
 10
-106.1978
 20
48.75
 30
0.0
 10
-106.297
 20
48.7475
 30
0.0
 10
-106.297
 20
48.7475
 30
0.0
 10
-106.297
 20
48.7475
 30
0.0
 10
-106.297
 20
48.7475
 30
0.0
 10
-106.3955
 20
48.7402
 30
0.0
 10
-106.3955
 20
48.7402
 30
0.0
 10
-106.3955
 20
48.7402
 30
0.0
 10
-106.3955
 20
48.7402
 30
0.0
 10
-106.4931
 20
48.7281
 30
0.0
 10
-106.4931
 20
48.7281
 30
0.0
 10
-106.4931
 20
48.7281
 30
0.0
 10
-106.4931
 20
48.7281
 30
0.0
 10
-106.5898
 20
48.7112
 30
0.0
 10
-106.5898
 20
48.7112
 30
0.0
 10
-106.5898
 20
48.7112
 30
0.0
 10
-106.5898
 20
48.7112
 30
0.0
 10
-106.6853
 20
48.6897
 30
0.0
 10
-106.6853
 20
48.6897
 30
0.0
 10
-106.6853
 20
48.6897
 30
0.0
 10
-106.6853
 20
48.6897
 30
0.0
 10
-106.7794
 20
48.6636
 30
0.0
 10
-106.7794
 20
48.6636
 30
0.0
 10
-106.7794
 20
48.6636
 30
0.0
 10
-106.7794
 20
48.6636
 30
0.0
 10
-106.8721
 20
48.6329
 30
0.0
 10
-106.8721
 20
48.6329
 30
0.0
 10
-106.8721
 20
48.6329
 30
0.0
 10
-106.8721
 20
48.6329
 30
0.0
 10
-106.9631
 20
48.5978
 30
0.0
 10
-106.9631
 20
48.5978
 30
0.0
 10
-106.9631
 20
48.5978
 30
0.0
 10
-106.9631
 20
48.5978
 30
0.0
 10
-107.0523
 20
48.5582
 30
0.0
 10
-107.0523
 20
48.5582
 30
0.0
 10
-107.0523
 20
48.5582
 30
0.0
 10
-107.0523
 20
48.5582
 30
0.0
 10
-107.1396
 20
48.5144
 30
0.0
 10
-107.1396
 20
48.5144
 30
0.0
 10
-107.1396
 20
48.5144
 30
0.0
 10
-107.1396
 20
48.5144
 30
0.0
 10
-107.2246
 20
48.4663
 30
0.0
 10
-107.2246
 20
48.4663
 30
0.0
 10
-107.2246
 20
48.4663
 30
0.0
 10
-107.2246
 20
48.4663
 30
0.0
 10
-107.3074
 20
48.414
 30
0.0
 10
-107.3074
 20
48.414
 30
0.0
 10
-107.3074
 20
48.414
 30
0.0
 10
-107.3074
 20
48.414
 30
0.0
 10
-107.3877
 20
48.3575
 30
0.0
 10
-107.3877
 20
48.3575
 30
0.0
 10
-107.3877
 20
48.3575
 30
0.0
 10
-107.3877
 20
48.3575
 30
0.0
 10
-107.4653
 20
48.2971
 30
0.0
 10
-107.4653
 20
48.2971
 30
0.0
 10
-107.4653
 20
48.2971
 30
0.0
 10
-107.4653
 20
48.2971
 30
0.0
 10
-107.5401
 20
48.2326
 30
0.0
 10
-107.5401
 20
48.2326
 30
0.0
 10
-107.5401
 20
48.2326
 30
0.0
 10
-107.5401
 20
48.2326
 30
0.0
 10
-107.612
 20
48.1642
 30
0.0
 10
-107.612
 20
48.1642
 30
0.0
 10
-107.612
 20
48.1642
 30
0.0
 10
-107.612
 20
48.1642
 30
0.0
 10
-107.6804
 20
48.0923
 30
0.0
 10
-107.6804
 20
48.0923
 30
0.0
 10
-107.6804
 20
48.0923
 30
0.0
 10
-107.6804
 20
48.0923
 30
0.0
 10
-107.7449
 20
48.0175
 30
0.0
 10
-107.7449
 20
48.0175
 30
0.0
 10
-107.7449
 20
48.0175
 30
0.0
 10
-107.7449
 20
48.0175
 30
0.0
 10
-107.8053
 20
47.9399
 30
0.0
 10
-107.8053
 20
47.9399
 30
0.0
 10
-107.8053
 20
47.9399
 30
0.0
 10
-107.8053
 20
47.9399
 30
0.0
 10
-107.8618
 20
47.8596
 30
0.0
 10
-107.8618
 20
47.8596
 30
0.0
 10
-107.8618
 20
47.8596
 30
0.0
 10
-107.8618
 20
47.8596
 30
0.0
 10
-107.9141
 20
47.7769
 30
0.0
 10
-107.9141
 20
47.7769
 30
0.0
 10
-107.9141
 20
47.7769
 30
0.0
 10
-107.9141
 20
47.7769
 30
0.0
 10
-107.9622
 20
47.6918
 30
0.0
 10
-107.9622
 20
47.6918
 30
0.0
 10
-107.9622
 20
47.6918
 30
0.0
 10
-107.9622
 20
47.6918
 30
0.0
 10
-108.006
 20
47.6046
 30
0.0
 10
-108.006
 20
47.6046
 30
0.0
 10
-108.006
 20
47.6046
 30
0.0
 10
-108.006
 20
47.6046
 30
0.0
 10
-108.0456
 20
47.5154
 30
0.0
 10
-108.0456
 20
47.5154
 30
0.0
 10
-108.0456
 20
47.5154
 30
0.0
 10
-108.0456
 20
47.5154
 30
0.0
 10
-108.0807
 20
47.4244
 30
0.0
 10
-108.0807
 20
47.4244
 30
0.0
 10
-108.0807
 20
47.4244
 30
0.0
 10
-108.0807
 20
47.4244
 30
0.0
 10
-108.1114
 20
47.3317
 30
0.0
 10
-108.1114
 20
47.3317
 30
0.0
 10
-108.1114
 20
47.3317
 30
0.0
 10
-108.1114
 20
47.3317
 30
0.0
 10
-108.1375
 20
47.2375
 30
0.0
 10
-108.1375
 20
47.2375
 30
0.0
 10
-108.1375
 20
47.2375
 30
0.0
 10
-108.1375
 20
47.2375
 30
0.0
 10
-108.159
 20
47.142
 30
0.0
 10
-108.159
 20
47.142
 30
0.0
 10
-108.159
 20
47.142
 30
0.0
 10
-108.159
 20
47.142
 30
0.0
 10
-108.1759
 20
47.0454
 30
0.0
 10
-108.1759
 20
47.0454
 30
0.0
 10
-108.1759
 20
47.0454
 30
0.0
 10
-108.1759
 20
47.0454
 30
0.0
 10
-108.188
 20
46.9477
 30
0.0
 10
-108.188
 20
46.9477
 30
0.0
 10
-108.188
 20
46.9477
 30
0.0
 10
-108.188
 20
46.9477
 30
0.0
 10
-108.1953
 20
46.8492
 30
0.0
 10
-108.1953
 20
46.8492
 30
0.0
 10
-108.1953
 20
46.8492
 30
0.0
 10
-108.1953
 20
46.8492
 30
0.0
 10
-108.1978
 20
46.75
 30
0.0
 10
-108.1978
 20
46.75
 30
0.0
 10
-108.1978
 20
46.75
 30
0.0
 10
-108.1978
 20
46.75
 30
0.0
 10
-108.1978
 20
42.315
 30
0.0
 10
-108.1978
 20
40.0493
 30
0.0
 10
-108.1978
 20
40.0493
 30
0.0
 10
-108.1978
 20
39.272
 30
0.0
 10
-108.1978
 20
38.75
 30
0.0
 10
-108.1978
 20
38.75
 30
0.0
 10
-108.1978
 20
38.75
 30
0.0
 10
-108.1978
 20
38.75
 30
0.0
 10
-111.1978
 20
38.75
 30
0.0
 10
-111.1978
 20
38.75
 30
0.0
 10
-111.1978
 20
38.75
 30
0.0
 10
-111.1978
 20
38.75
 30
0.0
 10
-111.1978
 20
41.75
 30
0.0
 10
-111.1978
 20
41.75
 30
0.0
 10
-111.1978
 20
41.75
 30
0.0
 10
-111.1978
 20
41.75
 30
0.0
 10
-116.1978
 20
41.75
 30
0.0
 10
-116.1978
 20
41.75
 30
0.0
 10
-116.1978
 20
41.75
 30
0.0
 10
-116.1978
 20
41.75
 30
0.0
 10
-116.1978
 20
38.75
 30
0.0
 10
-116.1978
 20
38.75
 30
0.0
 10
-116.1978
 20
38.75
 30
0.0
 10
-116.1978
 20
38.75
 30
0.0
 10
-121.25
 20
38.75
 30
0.0
 10
-121.25
 20
38.75
 30
0.0
 10
-121.25
 20
38.75
 30
0.0
 10
-121.25
 20
38.75
 30
0.0
 10
-121.25
 20
75.25
 30
0.0
 10
-121.25
 20
75.25
 30
0.0
 10
-121.25
 20
75.25
 30
0.0
 10
-121.25
 20
75.25
 30
0.0
 10
-118.25
 20
75.25
 30
0.0
 10
-118.25
 20
75.25
 30
0.0
 10
-118.25
 20
75.25
 30
0.0
 10
-118.25
 20
75.25
 30
0.0
 10
-118.25
 20
85.25
 30
0.0
 10
-118.25
 20
85.25
 30
0.0
 10
-118.25
 20
85.25
 30
0.0
 10
-118.25
 20
85.25
 30
0.0
 10
-121.25
 20
85.25
 30
0.0
 10
-121.25
 20
85.25
 30
0.0
 10
-121.25
 20
85.25
 30
0.0
 10
-121.25
 20
85.25
 30
0.0
 10
-121.25
 20
121.75
 30
0.0
 10
-121.25
 20
121.75
 30
0.0
 10
-121.25
 20
121.75
 30
0.0
 10
-121.25
 20
121.75
 30
0.0
 10
-96.2499
 20
121.75
 30
0.0
 10
-96.2499
 20
121.75
 30
0.0
 10
-96.2499
 20
121.75
 30
0.0
 10
-96.2499
 20
121.75
 30
0.0
 10
-96.2499
 20
118.75
 30
0.0
 10
-96.2499
 20
118.75
 30
0.0
 10
-96.2499
 20
118.75
 30
0.0
 10
-96.2499
 20
118.75
 30
0.0
 10
-86.25
 20
118.75
 30
0.0
 10
-86.25
 20
118.75
 30
0.0
 10
-86.25
 20
118.75
 30
0.0
 10
-86.25
 20
118.75
 30
0.0
 10
-86.25
 20
121.75
 30
0.0
 10
-86.25
 20
121.75
 30
0.0
 10
-86.25
 20
121.75
 30
0.0
 10
-86.25
 20
121.75
 30
0.0
 10
-61.25
 20
121.75
 30
0.0
 10
-61.25
 20
121.75
 30
0.0
 10
-61.25
 20
121.75
 30
0.0
 10
-61.25
 20
121.75
 30
0.0
 10
-61.25
 20
85.25
 30
0.0
 10
-61.25
 20
85.25
 30
0.0
 10
-61.25
 20
85.25
 30
0.0
 10
-61.25
 20
85.25
 30
0.0
 10
-64.25
 20
85.25
 30
0.0
 10
-64.25
 20
85.25
 30
0.0
 10
-64.25
 20
85.25
 30
0.0
 10
-64.25
 20
85.25
 30
0.0
 10
-64.25
 20
75.25
 30
0.0
 10
-64.25
 20
75.25
 30
0.0
 10
-64.25
 20
75.25
 30
0.0
 10
-64.25
 20
75.25
 30
0.0
 10
-61.25
 20
75.25
 30
0.0
 10
-61.25
 20
75.25
 30
0.0
 10
-61.25
 20
75.25
 30
0.0
 10
-61.25
 20
75.25
 30
0.0
 10
-61.25
 20
38.75
 30
0.0
 10
-61.25
 20
38.75
 30
0.0
 10
-61.25
 20
38.75
 30
0.0
 10
-61.25
 20
38.75
 30
0.0
 10
-66.25
 20
38.75
 30
0.0
 10
-66.25
 20
38.75
 30
0.0
 10
-66.25
 20
38.75
 30
0.0
 10
-66.25
 20
38.75
 30
0.0
 10
-66.25
 20
41.75
 30
0.0
 10
-66.25
 20
41.75
 30
0.0
 10
-66.25
 20
41.75
 30
0.0
 10
-66.25
 20
41.75
 30
0.0
 10
-71.25
 20
41.75
 30
0.0
 10
-71.25
 20
41.75
 30
0.0
 10
-71.25
 20
41.75
 30
0.0
 10
-71.25
 20
41.75
 30
0.0
 10
-71.25
 20
38.75
 30
0.0
 10
-71.25
 20
38.75
 30
0.0
 10
-71.25
 20
38.75
 30
0.0
 10
-71.25
 20
38.75
 30
0.0
 10
-76.25
 20
38.75
 30
0.0
 10
-76.25
 20
38.75
 30
0.0
  0
SPLINE
  5
43
330
1F
100
AcDbEntity
  8
Layer 1
 62
   250
370
     9
100
AcDbSpline
210
0.0
220
0.0
230
1.0
 70
    11
 71
     3
 72
    68
 73
    64
 74
     0
 42
0.0000000001
 43
0.0000000001
 40
0.0
 40
0.0
 40
0.0
 40
0.0
 40
0.0588235294117647
 40
0.0588235294117647
 40
0.0588235294117647
 40
0.0588235294117647
 40
0.1176470588235294
 40
0.1176470588235294
 40
0.1176470588235294
 40
0.1176470588235294
 40
0.1764705882352941
 40
0.1764705882352941
 40
0.1764705882352941
 40
0.1764705882352941
 40
0.2352941176470588
 40
0.2352941176470588
 40
0.2352941176470588
 40
0.2352941176470588
 40
0.2941176470588235
 40
0.2941176470588235
 40
0.2941176470588235
 40
0.2941176470588235
 40
0.3529411764705883
 40
0.3529411764705883
 40
0.3529411764705883
 40
0.3529411764705883
 40
0.4117647058823529
 40
0.4117647058823529
 40
0.4117647058823529
 40
0.4117647058823529
 40
0.4705882352941176
 40
0.4705882352941176
 40
0.4705882352941176
 40
0.4705882352941176
 40
0.5294117647058824
 40
0.5294117647058824
 40
0.5294117647058824
 40
0.5294117647058824
 40
0.5882352941176471
 40
0.5882352941176471
 40
0.5882352941176471
 40
0.5882352941176471
 40
0.6470588235294118
 40
0.6470588235294118
 40
0.6470588235294118
 40
0.6470588235294118
 40
0.7058823529411765
 40
0.7058823529411765
 40
0.7058823529411765
 40
0.7058823529411765
 40
0.7647058823529411
 40
0.7647058823529411
 40
0.7647058823529411
 40
0.7647058823529411
 40
0.8235294117647058
 40
0.8235294117647058
 40
0.8235294117647058
 40
0.8235294117647058
 40
0.8823529411764706
 40
0.8823529411764706
 40
0.8823529411764706
 40
0.8823529411764706
 40
1.0
 40
1.0
 40
1.0
 40
1.0
 10
-28.1194
 20
33.3712
 30
0.0
 10
-28.1194
 20
33.3712
 30
0.0
 10
5.3806
 20
33.3712
 30
0.0
 10
5.3806
 20
33.3712
 30
0.0
 10
5.3806
 20
33.3712
 30
0.0
 10
5.3806
 20
33.3712
 30
0.0
 10
5.3806
 20
36.3712
 30
0.0
 10
5.3806
 20
36.3712
 30
0.0
 10
5.3806
 20
36.3712
 30
0.0
 10
5.3806
 20
36.3712
 30
0.0
 10
15.3806
 20
36.3712
 30
0.0
 10
15.3806
 20
36.3712
 30
0.0
 10
15.3806
 20
36.3712
 30
0.0
 10
15.3806
 20
36.3712
 30
0.0
 10
15.3806
 20
33.3712
 30
0.0
 10
15.3806
 20
33.3712
 30
0.0
 10
15.3806
 20
33.3712
 30
0.0
 10
15.3806
 20
33.3712
 30
0.0
 10
48.8806
 20
33.3712
 30
0.0
 10
48.8806
 20
33.3712
 30
0.0
 10
48.8806
 20
33.3712
 30
0.0
 10
48.8806
 20
33.3712
 30
0.0
 10
48.8806
 20
27.3712
 30
0.0
 10
48.8806
 20
27.3712
 30
0.0
 10
48.8806
 20
27.3712
 30
0.0
 10
48.8806
 20
27.3712
 30
0.0
 10
51.8806
 20
27.3712
 30
0.0
 10
51.8806
 20
27.3712
 30
0.0
 10
51.8806
 20
27.3712
 30
0.0
 10
51.8806
 20
27.3712
 30
0.0
 10
51.8806
 20
17.3712
 30
0.0
 10
51.8806
 20
17.3712
 30
0.0
 10
51.8806
 20
17.3712
 30
0.0
 10
51.8806
 20
17.3712
 30
0.0
 10
48.8806
 20
17.3712
 30
0.0
 10
48.8806
 20
17.3712
 30
0.0
 10
48.8806
 20
17.3712
 30
0.0
 10
48.8806
 20
17.3712
 30
0.0
 10
48.8806
 20
11.3712
 30
0.0
 10
48.8806
 20
11.3712
 30
0.0
 10
48.8806
 20
11.3712
 30
0.0
 10
48.8806
 20
11.3712
 30
0.0
 10
15.3806
 20
11.3712
 30
0.0
 10
15.3806
 20
11.3712
 30
0.0
 10
15.3806
 20
11.3712
 30
0.0
 10
15.3806
 20
11.3712
 30
0.0
 10
15.3806
 20
8.3712
 30
0.0
 10
15.3806
 20
8.3712
 30
0.0
 10
15.3806
 20
8.3712
 30
0.0
 10
15.3806
 20
8.3712
 30
0.0
 10
5.3806
 20
8.3712
 30
0.0
 10
5.3806
 20
8.3712
 30
0.0
 10
5.3806
 20
8.3712
 30
0.0
 10
5.3806
 20
8.3712
 30
0.0
 10
5.3806
 20
11.3712
 30
0.0
 10
5.3806
 20
11.3712
 30
0.0
 10
5.3806
 20
11.3712
 30
0.0
 10
5.3806
 20
11.3712
 30
0.0
 10
-28.1194
 20
11.3712
 30
0.0
 10
-28.1194
 20
11.3712
 30
0.0
 10
-28.1194
 20
11.3712
 30
0.0
 10
-28.1194
 20
11.3712
 30
0.0
 10
-28.1194
 20
33.3712
 30
0.0
 10
-28.1194
 20
33.3712
 30
0.0
  0
SPLINE
  5
44
330
1F
100
AcDbEntity
  8
Layer 1
 62
   250
370
     9
100
AcDbSpline
210
0.0
220
0.0
230
1.0
 70
    11
 71
     3
 72
    68
 73
    64
 74
     0
 42
0.0000000001
 43
0.0000000001
 40
0.0
 40
0.0
 40
0.0
 40
0.0
 40
0.0588235294117647
 40
0.0588235294117647
 40
0.0588235294117647
 40
0.0588235294117647
 40
0.1176470588235294
 40
0.1176470588235294
 40
0.1176470588235294
 40
0.1176470588235294
 40
0.1764705882352941
 40
0.1764705882352941
 40
0.1764705882352941
 40
0.1764705882352941
 40
0.2352941176470588
 40
0.2352941176470588
 40
0.2352941176470588
 40
0.2352941176470588
 40
0.2941176470588235
 40
0.2941176470588235
 40
0.2941176470588235
 40
0.2941176470588235
 40
0.3529411764705883
 40
0.3529411764705883
 40
0.3529411764705883
 40
0.3529411764705883
 40
0.4117647058823529
 40
0.4117647058823529
 40
0.4117647058823529
 40
0.4117647058823529
 40
0.4705882352941176
 40
0.4705882352941176
 40
0.4705882352941176
 40
0.4705882352941176
 40
0.5294117647058824
 40
0.5294117647058824
 40
0.5294117647058824
 40
0.5294117647058824
 40
0.5882352941176471
 40
0.5882352941176471
 40
0.5882352941176471
 40
0.5882352941176471
 40
0.6470588235294118
 40
0.6470588235294118
 40
0.6470588235294118
 40
0.6470588235294118
 40
0.7058823529411765
 40
0.7058823529411765
 40
0.7058823529411765
 40
0.7058823529411765
 40
0.7647058823529411
 40
0.7647058823529411
 40
0.7647058823529411
 40
0.7647058823529411
 40
0.8235294117647058
 40
0.8235294117647058
 40
0.8235294117647058
 40
0.8235294117647058
 40
0.8823529411764706
 40
0.8823529411764706
 40
0.8823529411764706
 40
0.8823529411764706
 40
1.0
 40
1.0
 40
1.0
 40
1.0
 10
-119.5
 20
31.75
 30
0.0
 10
-119.5
 20
31.75
 30
0.0
 10
-86.0
 20
31.75
 30
0.0
 10
-86.0
 20
31.75
 30
0.0
 10
-86.0
 20
31.75
 30
0.0
 10
-86.0
 20
31.75
 30
0.0
 10
-86.0
 20
34.75
 30
0.0
 10
-86.0
 20
34.75
 30
0.0
 10
-86.0
 20
34.75
 30
0.0
 10
-86.0
 20
34.75
 30
0.0
 10
-76.0
 20
34.75
 30
0.0
 10
-76.0
 20
34.75
 30
0.0
 10
-76.0
 20
34.75
 30
0.0
 10
-76.0
 20
34.75
 30
0.0
 10
-76.0
 20
31.75
 30
0.0
 10
-76.0
 20
31.75
 30
0.0
 10
-76.0
 20
31.75
 30
0.0
 10
-76.0
 20
31.75
 30
0.0
 10
-42.5
 20
31.75
 30
0.0
 10
-42.5
 20
31.75
 30
0.0
 10
-42.5
 20
31.75
 30
0.0
 10
-42.5
 20
31.75
 30
0.0
 10
-42.5
 20
25.75
 30
0.0
 10
-42.5
 20
25.75
 30
0.0
 10
-42.5
 20
25.75
 30
0.0
 10
-42.5
 20
25.75
 30
0.0
 10
-39.5
 20
25.75
 30
0.0
 10
-39.5
 20
25.75
 30
0.0
 10
-39.5
 20
25.75
 30
0.0
 10
-39.5
 20
25.75
 30
0.0
 10
-39.5
 20
15.75
 30
0.0
 10
-39.5
 20
15.75
 30
0.0
 10
-39.5
 20
15.75
 30
0.0
 10
-39.5
 20
15.75
 30
0.0
 10
-42.5
 20
15.75
 30
0.0
 10
-42.5
 20
15.75
 30
0.0
 10
-42.5
 20
15.75
 30
0.0
 10
-42.5
 20
15.75
 30
0.0
 10
-42.5
 20
9.75
 30
0.0
 10
-42.5
 20
9.75
 30
0.0
 10
-42.5
 20
9.75
 30
0.0
 10
-42.5
 20
9.75
 30
0.0
 10
-76.0
 20
9.75
 30
0.0
 10
-76.0
 20
9.75
 30
0.0
 10
-76.0
 20
9.75
 30
0.0
 10
-76.0
 20
9.75
 30
0.0
 10
-76.0
 20
6.75
 30
0.0
 10
-76.0
 20
6.75
 30
0.0
 10
-76.0
 20
6.75
 30
0.0
 10
-76.0
 20
6.75
 30
0.0
 10
-86.0
 20
6.75
 30
0.0
 10
-86.0
 20
6.75
 30
0.0
 10
-86.0
 20
6.75
 30
0.0
 10
-86.0
 20
6.75
 30
0.0
 10
-86.0
 20
9.75
 30
0.0
 10
-86.0
 20
9.75
 30
0.0
 10
-86.0
 20
9.75
 30
0.0
 10
-86.0
 20
9.75
 30
0.0
 10
-119.5
 20
9.75
 30
0.0
 10
-119.5
 20
9.75
 30
0.0
 10
-119.5
 20
9.75
 30
0.0
 10
-119.5
 20
9.75
 30
0.0
 10
-119.5
 20
31.75
 30
0.0
 10
-119.5
 20
31.75
 30
0.0
  0
SPLINE
  5
45
330
1F
100
AcDbEntity
  8
Layer 1
 62
   250
370
     9
100
AcDbSpline
210
0.0
220
0.0
230
1.0
 70
    11
 71
     3
 72
   384
 73
   380
 74
     0
 42
0.0000000001
 43
0.0000000001
 40
0.0
 40
0.0
 40
0.0
 40
0.0
 40
0.0104166666666667
 40
0.0104166666666667
 40
0.0104166666666667
 40
0.0104166666666667
 40
0.0208333333333333
 40
0.0208333333333333
 40
0.0208333333333333
 40
0.0208333333333333
 40
0.03125
 40
0.03125
 40
0.03125
 40
0.03125
 40
0.0416666666666667
 40
0.0416666666666667
 40
0.0416666666666667
 40
0.0416666666666667
 40
0.0520833333333333
 40
0.0520833333333333
 40
0.0520833333333333
 40
0.0520833333333333
 40
0.0625
 40
0.0625
 40
0.0625
 40
0.0625
 40
0.0729166666666667
 40
0.0729166666666667
 40
0.0729166666666667
 40
0.0729166666666667
 40
0.0833333333333333
 40
0.0833333333333333
 40
0.0833333333333333
 40
0.0833333333333333
 40
0.09375
 40
0.09375
 40
0.09375
 40
0.09375
 40
0.1041666666666667
 40
0.1041666666666667
 40
0.1041666666666667
 40
0.1041666666666667
 40
0.1145833333333333
 40
0.1145833333333333
 40
0.1145833333333333
 40
0.1145833333333333
 40
0.125
 40
0.125
 40
0.125
 40
0.125
 40
0.1354166666666667
 40
0.1354166666666667
 40
0.1354166666666667
 40
0.1354166666666667
 40
0.1458333333333333
 40
0.1458333333333333
 40
0.1458333333333333
 40
0.1458333333333333
 40
0.15625
 40
0.15625
 40
0.15625
 40
0.15625
 40
0.1666666666666667
 40
0.1666666666666667
 40
0.1666666666666667
 40
0.1666666666666667
 40
0.1770833333333333
 40
0.1770833333333333
 40
0.1770833333333333
 40
0.1770833333333333
 40
0.1875
 40
0.1875
 40
0.1875
 40
0.1875
 40
0.1979166666666667
 40
0.1979166666666667
 40
0.1979166666666667
 40
0.1979166666666667
 40
0.2083333333333333
 40
0.2083333333333333
 40
0.2083333333333333
 40
0.2083333333333333
 40
0.21875
 40
0.21875
 40
0.21875
 40
0.21875
 40
0.2291666666666667
 40
0.2291666666666667
 40
0.2291666666666667
 40
0.2291666666666667
 40
0.2395833333333333
 40
0.2395833333333333
 40
0.2395833333333333
 40
0.2395833333333333
 40
0.25
 40
0.25
 40
0.25
 40
0.25
 40
0.2604166666666667
 40
0.2604166666666667
 40
0.2604166666666667
 40
0.2604166666666667
 40
0.2708333333333333
 40
0.2708333333333333
 40
0.2708333333333333
 40
0.2708333333333333
 40
0.28125
 40
0.28125
 40
0.28125
 40
0.28125
 40
0.2916666666666667
 40
0.2916666666666667
 40
0.2916666666666667
 40
0.2916666666666667
 40
0.3020833333333333
 40
0.3020833333333333
 40
0.3020833333333333
 40
0.3020833333333333
 40
0.3125
 40
0.3125
 40
0.3125
 40
0.3125
 40
0.3229166666666667
 40
0.3229166666666667
 40
0.3229166666666667
 40
0.3229166666666667
 40
0.3333333333333333
 40
0.3333333333333333
 40
0.3333333333333333
 40
0.3333333333333333
 40
0.34375
 40
0.34375
 40
0.34375
 40
0.34375
 40
0.3541666666666667
 40
0.3541666666666667
 40
0.3541666666666667
 40
0.3541666666666667
 40
0.3645833333333333
 40
0.3645833333333333
 40
0.3645833333333333
 40
0.3645833333333333
 40
0.375
 40
0.375
 40
0.375
 40
0.375
 40
0.3854166666666667
 40
0.3854166666666667
 40
0.3854166666666667
 40
0.3854166666666667
 40
0.3958333333333333
 40
0.3958333333333333
 40
0.3958333333333333
 40
0.3958333333333333
 40
0.40625
 40
0.40625
 40
0.40625
 40
0.40625
 40
0.4166666666666667
 40
0.4166666666666667
 40
0.4166666666666667
 40
0.4166666666666667
 40
0.4270833333333333
 40
0.4270833333333333
 40
0.4270833333333333
 40
0.4270833333333333
 40
0.4375
 40
0.4375
 40
0.4375
 40
0.4375
 40
0.4479166666666667
 40
0.4479166666666667
 40
0.4479166666666667
 40
0.4479166666666667
 40
0.4583333333333333
 40
0.4583333333333333
 40
0.4583333333333333
 40
0.4583333333333333
 40
0.46875
 40
0.46875
 40
0.46875
 40
0.46875
 40
0.4791666666666667
 40
0.4791666666666667
 40
0.4791666666666667
 40
0.4791666666666667
 40
0.4895833333333333
 40
0.4895833333333333
 40
0.4895833333333333
 40
0.4895833333333333
 40
0.5
 40
0.5
 40
0.5
 40
0.5
 40
0.5104166666666666
 40
0.5104166666666666
 40
0.5104166666666666
 40
0.5104166666666666
 40
0.5208333333333334
 40
0.5208333333333334
 40
0.5208333333333334
 40
0.5208333333333334
 40
0.53125
 40
0.53125
 40
0.53125
 40
0.53125
 40
0.5416666666666666
 40
0.5416666666666666
 40
0.5416666666666666
 40
0.5416666666666666
 40
0.5520833333333334
 40
0.5520833333333334
 40
0.5520833333333334
 40
0.5520833333333334
 40
0.5625
 40
0.5625
 40
0.5625
 40
0.5625
 40
0.5729166666666666
 40
0.5729166666666666
 40
0.5729166666666666
 40
0.5729166666666666
 40
0.5833333333333334
 40
0.5833333333333334
 40
0.5833333333333334
 40
0.5833333333333334
 40
0.59375
 40
0.59375
 40
0.59375
 40
0.59375
 40
0.6041666666666666
 40
0.6041666666666666
 40
0.6041666666666666
 40
0.6041666666666666
 40
0.6145833333333334
 40
0.6145833333333334
 40
0.6145833333333334
 40
0.6145833333333334
 40
0.625
 40
0.625
 40
0.625
 40
0.625
 40
0.6354166666666666
 40
0.6354166666666666
 40
0.6354166666666666
 40
0.6354166666666666
 40
0.6458333333333334
 40
0.6458333333333334
 40
0.6458333333333334
 40
0.6458333333333334
 40
0.65625
 40
0.65625
 40
0.65625
 40
0.65625
 40
0.6666666666666666
 40
0.6666666666666666
 40
0.6666666666666666
 40
0.6666666666666666
 40
0.6770833333333334
 40
0.6770833333333334
 40
0.6770833333333334
 40
0.6770833333333334
 40
0.6875
 40
0.6875
 40
0.6875
 40
0.6875
 40
0.6979166666666666
 40
0.6979166666666666
 40
0.6979166666666666
 40
0.6979166666666666
 40
0.7083333333333334
 40
0.7083333333333334
 40
0.7083333333333334
 40
0.7083333333333334
 40
0.71875
 40
0.71875
 40
0.71875
 40
0.71875
 40
0.7291666666666666
 40
0.7291666666666666
 40
0.7291666666666666
 40
0.7291666666666666
 40
0.7395833333333334
 40
0.7395833333333334
 40
0.7395833333333334
 40
0.7395833333333334
 40
0.75
 40
0.75
 40
0.75
 40
0.75
 40
0.7604166666666666
 40
0.7604166666666666
 40
0.7604166666666666
 40
0.7604166666666666
 40
0.7708333333333334
 40
0.7708333333333334
 40
0.7708333333333334
 40
0.7708333333333334
 40
0.78125
 40
0.78125
 40
0.78125
 40
0.78125
 40
0.7916666666666666
 40
0.7916666666666666
 40
0.7916666666666666
 40
0.7916666666666666
 40
0.8020833333333334
 40
0.8020833333333334
 40
0.8020833333333334
 40
0.8020833333333334
 40
0.8125
 40
0.8125
 40
0.8125
 40
0.8125
 40
0.8229166666666666
 40
0.8229166666666666
 40
0.8229166666666666
 40
0.8229166666666666
 40
0.8333333333333334
 40
0.8333333333333334
 40
0.8333333333333334
 40
0.8333333333333334
 40
0.84375
 40
0.84375
 40
0.84375
 40
0.84375
 40
0.8541666666666666
 40
0.8541666666666666
 40
0.8541666666666666
 40
0.8541666666666666
 40
0.8645833333333334
 40
0.8645833333333334
 40
0.8645833333333334
 40
0.8645833333333334
 40
0.875
 40
0.875
 40
0.875
 40
0.875
 40
0.8854166666666666
 40
0.8854166666666666
 40
0.8854166666666666
 40
0.8854166666666666
 40
0.8958333333333334
 40
0.8958333333333334
 40
0.8958333333333334
 40
0.8958333333333334
 40
0.90625
 40
0.90625
 40
0.90625
 40
0.90625
 40
0.9166666666666666
 40
0.9166666666666666
 40
0.9166666666666666
 40
0.9166666666666666
 40
0.9270833333333334
 40
0.9270833333333334
 40
0.9270833333333334
 40
0.9270833333333334
 40
0.9375
 40
0.9375
 40
0.9375
 40
0.9375
 40
0.9479166666666666
 40
0.9479166666666666
 40
0.9479166666666666
 40
0.9479166666666666
 40
0.9583333333333334
 40
0.9583333333333334
 40
0.9583333333333334
 40
0.9583333333333334
 40
0.96875
 40
0.96875
 40
0.96875
 40
0.96875
 40
0.9791666666666666
 40
0.9791666666666666
 40
0.9791666666666666
 40
0.9791666666666666
 40
1.0
 40
1.0
 40
1.0
 40
1.0
 10
15.7755
 20
91.9765
 30
0.0
 10
15.7755
 20
91.9765
 30
0.0
 10
15.7755
 20
106.9766
 30
0.0
 10
15.7755
 20
106.9766
 30
0.0
 10
15.7755
 20
106.9766
 30
0.0
 10
15.7755
 20
106.9766
 30
0.0
 10
12.7755
 20
106.9766
 30
0.0
 10
12.7755
 20
106.9766
 30
0.0
 10
12.7755
 20
106.9766
 30
0.0
 10
12.7755
 20
106.9766
 30
0.0
 10
12.7755
 20
111.9766
 30
0.0
 10
12.7755
 20
111.9766
 30
0.0
 10
12.7755
 20
111.9766
 30
0.0
 10
12.7755
 20
111.9766
 30
0.0
 10
15.7755
 20
111.9766
 30
0.0
 10
15.7755
 20
111.9766
 30
0.0
 10
15.7755
 20
111.9766
 30
0.0
 10
15.7755
 20
111.9766
 30
0.0
 10
15.7755
 20
114.0176
 30
0.0
 10
15.7755
 20
114.0176
 30
0.0
 10
15.7755
 20
114.0176
 30
0.0
 10
15.7755
 20
114.0176
 30
0.0
 10
15.7755
 20
117.0176
 30
0.0
 10
15.7755
 20
117.0176
 30
0.0
 10
15.7755
 20
117.0176
 30
0.0
 10
15.7755
 20
117.0176
 30
0.0
 10
40.7755
 20
117.0176
 30
0.0
 10
40.7755
 20
117.0176
 30
0.0
 10
40.7755
 20
117.0176
 30
0.0
 10
40.7755
 20
117.0176
 30
0.0
 10
40.7755
 20
114.0176
 30
0.0
 10
40.7755
 20
114.0176
 30
0.0
 10
40.7755
 20
114.0176
 30
0.0
 10
40.7755
 20
114.0176
 30
0.0
 10
40.7755
 20
108.9766
 30
0.0
 10
40.7755
 20
108.9766
 30
0.0
 10
40.7755
 20
108.9766
 30
0.0
 10
40.7755
 20
108.9766
 30
0.0
 10
37.7754
 20
108.9766
 30
0.0
 10
37.7754
 20
108.9766
 30
0.0
 10
37.7754
 20
108.9766
 30
0.0
 10
37.7754
 20
108.9766
 30
0.0
 10
37.7754
 20
102.9766
 30
0.0
 10
37.7754
 20
102.9766
 30
0.0
 10
37.7754
 20
102.9766
 30
0.0
 10
37.7754
 20
102.9766
 30
0.0
 10
40.7755
 20
102.9766
 30
0.0
 10
40.7755
 20
102.9766
 30
0.0
 10
40.7755
 20
102.9766
 30
0.0
 10
40.7755
 20
102.9766
 30
0.0
 10
40.7755
 20
70.9766
 30
0.0
 10
40.7755
 20
70.9766
 30
0.0
 10
40.7755
 20
70.9766
 30
0.0
 10
40.7755
 20
70.9766
 30
0.0
 10
37.7754
 20
70.9766
 30
0.0
 10
37.7754
 20
70.9766
 30
0.0
 10
37.7754
 20
70.9766
 30
0.0
 10
37.7754
 20
70.9766
 30
0.0
 10
37.7754
 20
64.9766
 30
0.0
 10
37.7754
 20
64.9766
 30
0.0
 10
37.7754
 20
64.9766
 30
0.0
 10
37.7754
 20
64.9766
 30
0.0
 10
40.7755
 20
64.9766
 30
0.0
 10
40.7755
 20
64.9766
 30
0.0
 10
40.7755
 20
64.9766
 30
0.0
 10
40.7755
 20
64.9766
 30
0.0
 10
40.7755
 20
56.9766
 30
0.0
 10
40.7755
 20
56.9766
 30
0.0
 10
40.7755
 20
56.9766
 30
0.0
 10
40.7755
 20
56.9766
 30
0.0
 10
31.7755
 20
56.9766
 30
0.0
 10
31.7755
 20
56.9766
 30
0.0
 10
31.7755
 20
56.9766
 30
0.0
 10
31.7755
 20
56.9766
 30
0.0
 10
31.7755
 20
59.9766
 30
0.0
 10
31.7755
 20
59.9766
 30
0.0
 10
31.7755
 20
59.9766
 30
0.0
 10
31.7755
 20
59.9766
 30
0.0
 10
21.7755
 20
59.9766
 30
0.0
 10
21.7755
 20
59.9766
 30
0.0
 10
21.7755
 20
59.9766
 30
0.0
 10
21.7755
 20
59.9766
 30
0.0
 10
21.7755
 20
56.9766
 30
0.0
 10
21.7755
 20
56.9766
 30
0.0
 10
21.7755
 20
56.9766
 30
0.0
 10
21.7755
 20
56.9766
 30
0.0
 10
15.7755
 20
56.9766
 30
0.0
 10
15.7755
 20
56.9766
 30
0.0
 10
15.7755
 20
56.9766
 30
0.0
 10
15.7755
 20
56.9766
 30
0.0
 10
15.7755
 20
61.9766
 30
0.0
 10
15.7755
 20
61.9766
 30
0.0
 10
15.7755
 20
61.9766
 30
0.0
 10
15.7755
 20
61.9766
 30
0.0
 10
12.7755
 20
61.9766
 30
0.0
 10
12.7755
 20
61.9766
 30
0.0
 10
12.7755
 20
61.9766
 30
0.0
 10
12.7755
 20
61.9766
 30
0.0
 10
12.7755
 20
66.9766
 30
0.0
 10
12.7755
 20
66.9766
 30
0.0
 10
12.7755
 20
66.9766
 30
0.0
 10
12.7755
 20
66.9766
 30
0.0
 10
15.7755
 20
66.9766
 30
0.0
 10
15.7755
 20
66.9766
 30
0.0
 10
15.7755
 20
66.9766
 30
0.0
 10
15.7755
 20
66.9766
 30
0.0
 10
15.7755
 20
69.9766
 30
0.0
 10
15.7755
 20
69.9766
 30
0.0
 10
15.7755
 20
69.9766
 30
0.0
 10
15.7755
 20
69.9766
 30
0.0
 10
18.3547
 20
69.9766
 30
0.0
 10
19.132
 20
69.9766
 30
0.0
 10
19.132
 20
69.9766
 30
0.0
 10
21.3977
 20
69.9766
 30
0.0
 10
25.8327
 20
69.9766
 30
0.0
 10
25.8327
 20
69.9766
 30
0.0
 10
25.8327
 20
69.9766
 30
0.0
 10
25.8327
 20
69.9766
 30
0.0
 10
25.9319
 20
69.9791
 30
0.0
 10
25.9319
 20
69.9791
 30
0.0
 10
25.9319
 20
69.9791
 30
0.0
 10
25.9319
 20
69.9791
 30
0.0
 10
26.0304
 20
69.9864
 30
0.0
 10
26.0304
 20
69.9864
 30
0.0
 10
26.0304
 20
69.9864
 30
0.0
 10
26.0304
 20
69.9864
 30
0.0
 10
26.1281
 20
69.9985
 30
0.0
 10
26.1281
 20
69.9985
 30
0.0
 10
26.1281
 20
69.9985
 30
0.0
 10
26.1281
 20
69.9985
 30
0.0
 10
26.2247
 20
70.0154
 30
0.0
 10
26.2247
 20
70.0154
 30
0.0
 10
26.2247
 20
70.0154
 30
0.0
 10
26.2247
 20
70.0154
 30
0.0
 10
26.3202
 20
70.0369
 30
0.0
 10
26.3202
 20
70.0369
 30
0.0
 10
26.3202
 20
70.0369
 30
0.0
 10
26.3202
 20
70.0369
 30
0.0
 10
26.4144
 20
70.063
 30
0.0
 10
26.4144
 20
70.063
 30
0.0
 10
26.4144
 20
70.063
 30
0.0
 10
26.4144
 20
70.063
 30
0.0
 10
26.5071
 20
70.0937
 30
0.0
 10
26.5071
 20
70.0937
 30
0.0
 10
26.5071
 20
70.0937
 30
0.0
 10
26.5071
 20
70.0937
 30
0.0
 10
26.5981
 20
70.1288
 30
0.0
 10
26.5981
 20
70.1288
 30
0.0
 10
26.5981
 20
70.1288
 30
0.0
 10
26.5981
 20
70.1288
 30
0.0
 10
26.6873
 20
70.1684
 30
0.0
 10
26.6873
 20
70.1684
 30
0.0
 10
26.6873
 20
70.1684
 30
0.0
 10
26.6873
 20
70.1684
 30
0.0
 10
26.7745
 20
70.2122
 30
0.0
 10
26.7745
 20
70.2122
 30
0.0
 10
26.7745
 20
70.2122
 30
0.0
 10
26.7745
 20
70.2122
 30
0.0
 10
26.8596
 20
70.2603
 30
0.0
 10
26.8596
 20
70.2603
 30
0.0
 10
26.8596
 20
70.2603
 30
0.0
 10
26.8596
 20
70.2603
 30
0.0
 10
26.9423
 20
70.3126
 30
0.0
 10
26.9423
 20
70.3126
 30
0.0
 10
26.9423
 20
70.3126
 30
0.0
 10
26.9423
 20
70.3126
 30
0.0
 10
27.0226
 20
70.3691
 30
0.0
 10
27.0226
 20
70.3691
 30
0.0
 10
27.0226
 20
70.3691
 30
0.0
 10
27.0226
 20
70.3691
 30
0.0
 10
27.1002
 20
70.4295
 30
0.0
 10
27.1002
 20
70.4295
 30
0.0
 10
27.1002
 20
70.4295
 30
0.0
 10
27.1002
 20
70.4295
 30
0.0
 10
27.175
 20
70.494
 30
0.0
 10
27.175
 20
70.494
 30
0.0
 10
27.175
 20
70.494
 30
0.0
 10
27.175
 20
70.494
 30
0.0
 10
27.2469
 20
70.5624
 30
0.0
 10
27.2469
 20
70.5624
 30
0.0
 10
27.2469
 20
70.5624
 30
0.0
 10
27.2469
 20
70.5624
 30
0.0
 10
27.3153
 20
70.6343
 30
0.0
 10
27.3153
 20
70.6343
 30
0.0
 10
27.3153
 20
70.6343
 30
0.0
 10
27.3153
 20
70.6343
 30
0.0
 10
27.3798
 20
70.7091
 30
0.0
 10
27.3798
 20
70.7091
 30
0.0
 10
27.3798
 20
70.7091
 30
0.0
 10
27.3798
 20
70.7091
 30
0.0
 10
27.4402
 20
70.7867
 30
0.0
 10
27.4402
 20
70.7867
 30
0.0
 10
27.4402
 20
70.7867
 30
0.0
 10
27.4402
 20
70.7867
 30
0.0
 10
27.4967
 20
70.867
 30
0.0
 10
27.4967
 20
70.867
 30
0.0
 10
27.4967
 20
70.867
 30
0.0
 10
27.4967
 20
70.867
 30
0.0
 10
27.549
 20
70.9498
 30
0.0
 10
27.549
 20
70.9498
 30
0.0
 10
27.549
 20
70.9498
 30
0.0
 10
27.549
 20
70.9498
 30
0.0
 10
27.5971
 20
71.0348
 30
0.0
 10
27.5971
 20
71.0348
 30
0.0
 10
27.5971
 20
71.0348
 30
0.0
 10
27.5971
 20
71.0348
 30
0.0
 10
27.6409
 20
71.1221
 30
0.0
 10
27.6409
 20
71.1221
 30
0.0
 10
27.6409
 20
71.1221
 30
0.0
 10
27.6409
 20
71.1221
 30
0.0
 10
27.6805
 20
71.2113
 30
0.0
 10
27.6805
 20
71.2113
 30
0.0
 10
27.6805
 20
71.2113
 30
0.0
 10
27.6805
 20
71.2113
 30
0.0
 10
27.7156
 20
71.3023
 30
0.0
 10
27.7156
 20
71.3023
 30
0.0
 10
27.7156
 20
71.3023
 30
0.0
 10
27.7156
 20
71.3023
 30
0.0
 10
27.7463
 20
71.395
 30
0.0
 10
27.7463
 20
71.395
 30
0.0
 10
27.7463
 20
71.395
 30
0.0
 10
27.7463
 20
71.395
 30
0.0
 10
27.7724
 20
71.4891
 30
0.0
 10
27.7724
 20
71.4891
 30
0.0
 10
27.7724
 20
71.4891
 30
0.0
 10
27.7724
 20
71.4891
 30
0.0
 10
27.7939
 20
71.5846
 30
0.0
 10
27.7939
 20
71.5846
 30
0.0
 10
27.7939
 20
71.5846
 30
0.0
 10
27.7939
 20
71.5846
 30
0.0
 10
27.8108
 20
71.6813
 30
0.0
 10
27.8108
 20
71.6813
 30
0.0
 10
27.8108
 20
71.6813
 30
0.0
 10
27.8108
 20
71.6813
 30
0.0
 10
27.8229
 20
71.7789
 30
0.0
 10
27.8229
 20
71.7789
 30
0.0
 10
27.8229
 20
71.7789
 30
0.0
 10
27.8229
 20
71.7789
 30
0.0
 10
27.8302
 20
71.8774
 30
0.0
 10
27.8302
 20
71.8774
 30
0.0
 10
27.8302
 20
71.8774
 30
0.0
 10
27.8302
 20
71.8774
 30
0.0
 10
27.8327
 20
71.9766
 30
0.0
 10
27.8327
 20
71.9766
 30
0.0
 10
27.8327
 20
71.9766
 30
0.0
 10
27.8327
 20
71.9766
 30
0.0
 10
27.8327
 20
89.9765
 30
0.0
 10
27.8327
 20
89.9765
 30
0.0
 10
27.8327
 20
89.9765
 30
0.0
 10
27.8327
 20
89.9765
 30
0.0
 10
27.8302
 20
90.0757
 30
0.0
 10
27.8302
 20
90.0757
 30
0.0
 10
27.8302
 20
90.0757
 30
0.0
 10
27.8302
 20
90.0757
 30
0.0
 10
27.8229
 20
90.1742
 30
0.0
 10
27.8229
 20
90.1742
 30
0.0
 10
27.8229
 20
90.1742
 30
0.0
 10
27.8229
 20
90.1742
 30
0.0
 10
27.8108
 20
90.2719
 30
0.0
 10
27.8108
 20
90.2719
 30
0.0
 10
27.8108
 20
90.2719
 30
0.0
 10
27.8108
 20
90.2719
 30
0.0
 10
27.7939
 20
90.3685
 30
0.0
 10
27.7939
 20
90.3685
 30
0.0
 10
27.7939
 20
90.3685
 30
0.0
 10
27.7939
 20
90.3685
 30
0.0
 10
27.7724
 20
90.464
 30
0.0
 10
27.7724
 20
90.464
 30
0.0
 10
27.7724
 20
90.464
 30
0.0
 10
27.7724
 20
90.464
 30
0.0
 10
27.7463
 20
90.5582
 30
0.0
 10
27.7463
 20
90.5582
 30
0.0
 10
27.7463
 20
90.5582
 30
0.0
 10
27.7463
 20
90.5582
 30
0.0
 10
27.7156
 20
90.6509
 30
0.0
 10
27.7156
 20
90.6509
 30
0.0
 10
27.7156
 20
90.6509
 30
0.0
 10
27.7156
 20
90.6509
 30
0.0
 10
27.6805
 20
90.7419
 30
0.0
 10
27.6805
 20
90.7419
 30
0.0
 10
27.6805
 20
90.7419
 30
0.0
 10
27.6805
 20
90.7419
 30
0.0
 10
27.6409
 20
90.8311
 30
0.0
 10
27.6409
 20
90.8311
 30
0.0
 10
27.6409
 20
90.8311
 30
0.0
 10
27.6409
 20
90.8311
 30
0.0
 10
27.5971
 20
90.9183
 30
0.0
 10
27.5971
 20
90.9183
 30
0.0
 10
27.5971
 20
90.9183
 30
0.0
 10
27.5971
 20
90.9183
 30
0.0
 10
27.549
 20
91.0034
 30
0.0
 10
27.549
 20
91.0034
 30
0.0
 10
27.549
 20
91.0034
 30
0.0
 10
27.549
 20
91.0034
 30
0.0
 10
27.4967
 20
91.0861
 30
0.0
 10
27.4967
 20
91.0861
 30
0.0
 10
27.4967
 20
91.0861
 30
0.0
 10
27.4967
 20
91.0861
 30
0.0
 10
27.4402
 20
91.1664
 30
0.0
 10
27.4402
 20
91.1664
 30
0.0
 10
27.4402
 20
91.1664
 30
0.0
 10
27.4402
 20
91.1664
 30
0.0
 10
27.3798
 20
91.244
 30
0.0
 10
27.3798
 20
91.244
 30
0.0
 10
27.3798
 20
91.244
 30
0.0
 10
27.3798
 20
91.244
 30
0.0
 10
27.3153
 20
91.3188
 30
0.0
 10
27.3153
 20
91.3188
 30
0.0
 10
27.3153
 20
91.3188
 30
0.0
 10
27.3153
 20
91.3188
 30
0.0
 10
27.2469
 20
91.3907
 30
0.0
 10
27.2469
 20
91.3907
 30
0.0
 10
27.2469
 20
91.3907
 30
0.0
 10
27.2469
 20
91.3907
 30
0.0
 10
27.175
 20
91.4591
 30
0.0
 10
27.175
 20
91.4591
 30
0.0
 10
27.175
 20
91.4591
 30
0.0
 10
27.175
 20
91.4591
 30
0.0
 10
27.1002
 20
91.5236
 30
0.0
 10
27.1002
 20
91.5236
 30
0.0
 10
27.1002
 20
91.5236
 30
0.0
 10
27.1002
 20
91.5236
 30
0.0
 10
27.0226
 20
91.584
 30
0.0
 10
27.0226
 20
91.584
 30
0.0
 10
27.0226
 20
91.584
 30
0.0
 10
27.0226
 20
91.584
 30
0.0
 10
26.9423
 20
91.6405
 30
0.0
 10
26.9423
 20
91.6405
 30
0.0
 10
26.9423
 20
91.6405
 30
0.0
 10
26.9423
 20
91.6405
 30
0.0
 10
26.8596
 20
91.6928
 30
0.0
 10
26.8596
 20
91.6928
 30
0.0
 10
26.8596
 20
91.6928
 30
0.0
 10
26.8596
 20
91.6928
 30
0.0
 10
26.7745
 20
91.7409
 30
0.0
 10
26.7745
 20
91.7409
 30
0.0
 10
26.7745
 20
91.7409
 30
0.0
 10
26.7745
 20
91.7409
 30
0.0
 10
26.6873
 20
91.7847
 30
0.0
 10
26.6873
 20
91.7847
 30
0.0
 10
26.6873
 20
91.7847
 30
0.0
 10
26.6873
 20
91.7847
 30
0.0
 10
26.5981
 20
91.8243
 30
0.0
 10
26.5981
 20
91.8243
 30
0.0
 10
26.5981
 20
91.8243
 30
0.0
 10
26.5981
 20
91.8243
 30
0.0
 10
26.5071
 20
91.8594
 30
0.0
 10
26.5071
 20
91.8594
 30
0.0
 10
26.5071
 20
91.8594
 30
0.0
 10
26.5071
 20
91.8594
 30
0.0
 10
26.4144
 20
91.8901
 30
0.0
 10
26.4144
 20
91.8901
 30
0.0
 10
26.4144
 20
91.8901
 30
0.0
 10
26.4144
 20
91.8901
 30
0.0
 10
26.3202
 20
91.9162
 30
0.0
 10
26.3202
 20
91.9162
 30
0.0
 10
26.3202
 20
91.9162
 30
0.0
 10
26.3202
 20
91.9162
 30
0.0
 10
26.2247
 20
91.9377
 30
0.0
 10
26.2247
 20
91.9377
 30
0.0
 10
26.2247
 20
91.9377
 30
0.0
 10
26.2247
 20
91.9377
 30
0.0
 10
26.1281
 20
91.9546
 30
0.0
 10
26.1281
 20
91.9546
 30
0.0
 10
26.1281
 20
91.9546
 30
0.0
 10
26.1281
 20
91.9546
 30
0.0
 10
26.0304
 20
91.9667
 30
0.0
 10
26.0304
 20
91.9667
 30
0.0
 10
26.0304
 20
91.9667
 30
0.0
 10
26.0304
 20
91.9667
 30
0.0
 10
25.9319
 20
91.974
 30
0.0
 10
25.9319
 20
91.974
 30
0.0
 10
25.9319
 20
91.974
 30
0.0
 10
25.9319
 20
91.974
 30
0.0
 10
25.8327
 20
91.9765
 30
0.0
 10
25.8327
 20
91.9765
 30
0.0
 10
25.8327
 20
91.9765
 30
0.0
 10
25.8327
 20
91.9765
 30
0.0
 10
15.9095
 20
91.9765
 30
0.0
 10
15.7755
 20
91.9765
 30
0.0
  0
SPLINE
  5
46
330
1F
100
AcDbEntity
  8
Layer 1
 62
   250
370
     9
100
AcDbSpline
210
0.0
220
0.0
230
1.0
 70
    11
 71
     3
 72
   108
 73
   104
 74
     0
 42
0.0000000001
 43
0.0000000001
 40
0.0
 40
0.0
 40
0.0
 40
0.0
 40
0.037037037037037
 40
0.037037037037037
 40
0.037037037037037
 40
0.037037037037037
 40
0.0740740740740741
 40
0.0740740740740741
 40
0.0740740740740741
 40
0.0740740740740741
 40
0.1111111111111111
 40
0.1111111111111111
 40
0.1111111111111111
 40
0.1111111111111111
 40
0.1481481481481481
 40
0.1481481481481481
 40
0.1481481481481481
 40
0.1481481481481481
 40
0.1851851851851852
 40
0.1851851851851852
 40
0.1851851851851852
 40
0.1851851851851852
 40
0.2222222222222222
 40
0.2222222222222222
 40
0.2222222222222222
 40
0.2222222222222222
 40
0.2592592592592592
 40
0.2592592592592592
 40
0.2592592592592592
 40
0.2592592592592592
 40
0.2962962962962963
 40
0.2962962962962963
 40
0.2962962962962963
 40
0.2962962962962963
 40
0.3333333333333333
 40
0.3333333333333333
 40
0.3333333333333333
 40
0.3333333333333333
 40
0.3703703703703703
 40
0.3703703703703703
 40
0.3703703703703703
 40
0.3703703703703703
 40
0.4074074074074074
 40
0.4074074074074074
 40
0.4074074074074074
 40
0.4074074074074074
 40
0.4444444444444444
 40
0.4444444444444444
 40
0.4444444444444444
 40
0.4444444444444444
 40
0.4814814814814815
 40
0.4814814814814815
 40
0.4814814814814815
 40
0.4814814814814815
 40
0.5185185185185185
 40
0.5185185185185185
 40
0.5185185185185185
 40
0.5185185185185185
 40
0.5555555555555556
 40
0.5555555555555556
 40
0.5555555555555556
 40
0.5555555555555556
 40
0.5925925925925926
 40
0.5925925925925926
 40
0.5925925925925926
 40
0.5925925925925926
 40
0.6296296296296297
 40
0.6296296296296297
 40
0.6296296296296297
 40
0.6296296296296297
 40
0.6666666666666666
 40
0.6666666666666666
 40
0.6666666666666666
 40
0.6666666666666666
 40
0.7037037037037037
 40
0.7037037037037037
 40
0.7037037037037037
 40
0.7037037037037037
 40
0.7407407407407407
 40
0.7407407407407407
 40
0.7407407407407407
 40
0.7407407407407407
 40
0.7777777777777778
 40
0.7777777777777778
 40
0.7777777777777778
 40
0.7777777777777778
 40
0.8148148148148148
 40
0.8148148148148148
 40
0.8148148148148148
 40
0.8148148148148148
 40
0.8518518518518519
 40
0.8518518518518519
 40
0.8518518518518519
 40
0.8518518518518519
 40
0.8888888888888888
 40
0.8888888888888888
 40
0.8888888888888888
 40
0.8888888888888888
 40
0.9259259259259259
 40
0.9259259259259259
 40
0.9259259259259259
 40
0.9259259259259259
 40
1.0
 40
1.0
 40
1.0
 40
1.0
 10
55.25
 20
119.0
 30
0.0
 10
55.25
 20
119.0
 30
0.0
 10
53.75
 20
119.0
 30
0.0
 10
53.75
 20
119.0
 30
0.0
 10
53.75
 20
119.0
 30
0.0
 10
53.75
 20
119.0
 30
0.0
 10
46.25
 20
119.0
 30
0.0
 10
46.25
 20
119.0
 30
0.0
 10
46.25
 20
119.0
 30
0.0
 10
46.25
 20
119.0
 30
0.0
 10
46.25
 20
92.0
 30
0.0
 10
46.25
 20
92.0
 30
0.0
 10
46.25
 20
92.0
 30
0.0
 10
46.25
 20
92.0
 30
0.0
 10
49.25
 20
92.0
 30
0.0
 10
49.25
 20
92.0
 30
0.0
 10
49.25
 20
92.0
 30
0.0
 10
49.25
 20
92.0
 30
0.0
 10
49.25
 20
86.0
 30
0.0
 10
49.25
 20
86.0
 30
0.0
 10
49.25
 20
86.0
 30
0.0
 10
49.25
 20
86.0
 30
0.0
 10
46.25
 20
86.0
 30
0.0
 10
46.25
 20
86.0
 30
0.0
 10
46.25
 20
86.0
 30
0.0
 10
46.25
 20
86.0
 30
0.0
 10
46.25
 20
77.0
 30
0.0
 10
46.25
 20
77.0
 30
0.0
 10
46.25
 20
77.0
 30
0.0
 10
46.25
 20
77.0
 30
0.0
 10
52.6113
 20
77.0
 30
0.0
 10
52.6113
 20
77.0
 30
0.0
 10
52.6113
 20
77.0
 30
0.0
 10
52.9634
 20
77.0
 30
0.0
 10
53.2488
 20
76.7146
 30
0.0
 10
53.2488
 20
76.3625
 30
0.0
 10
53.2488
 20
76.3625
 30
0.0
 10
53.2488
 20
76.3625
 30
0.0
 10
53.2488
 20
73.6536
 30
0.0
 10
53.2488
 20
73.6536
 30
0.0
 10
53.2488
 20
73.6536
 30
0.0
 10
53.2489
 20
73.6484
 30
0.0
 10
53.249
 20
73.6429
 30
0.0
 10
53.249
 20
73.6375
 30
0.0
 10
53.249
 20
73.6375
 30
0.0
 10
53.249
 20
73.2854
 30
0.0
 10
52.9636
 20
73.0
 30
0.0
 10
52.6115
 20
73.0
 30
0.0
 10
52.6115
 20
73.0
 30
0.0
 10
52.6115
 20
73.0
 30
0.0
 10
46.25
 20
73.0
 30
0.0
 10
46.25
 20
73.0
 30
0.0
 10
46.25
 20
73.0
 30
0.0
 10
46.25
 20
73.0
 30
0.0
 10
46.25
 20
62.0
 30
0.0
 10
46.25
 20
62.0
 30
0.0
 10
46.25
 20
62.0
 30
0.0
 10
46.25
 20
62.0
 30
0.0
 10
46.25
 20
59.0
 30
0.0
 10
46.25
 20
59.0
 30
0.0
 10
46.25
 20
59.0
 30
0.0
 10
46.25
 20
59.0
 30
0.0
 10
71.25
 20
59.0
 30
0.0
 10
71.25
 20
59.0
 30
0.0
 10
71.25
 20
59.0
 30
0.0
 10
71.25
 20
59.0
 30
0.0
 10
71.25
 20
62.0
 30
0.0
 10
71.25
 20
62.0
 30
0.0
 10
71.25
 20
62.0
 30
0.0
 10
71.25
 20
62.0
 30
0.0
 10
71.25
 20
84.0001
 30
0.0
 10
71.25
 20
84.0001
 30
0.0
 10
71.25
 20
84.0001
 30
0.0
 10
71.25
 20
84.0001
 30
0.0
 10
74.25
 20
84.0001
 30
0.0
 10
74.25
 20
84.0001
 30
0.0
 10
74.25
 20
84.0001
 30
0.0
 10
74.25
 20
84.0001
 30
0.0
 10
74.25
 20
94.0
 30
0.0
 10
74.25
 20
94.0
 30
0.0
 10
74.25
 20
94.0
 30
0.0
 10
74.25
 20
94.0
 30
0.0
 10
71.25
 20
94.0
 30
0.0
 10
71.25
 20
94.0
 30
0.0
 10
71.25
 20
94.0
 30
0.0
 10
71.25
 20
94.0
 30
0.0
 10
71.25
 20
119.0
 30
0.0
 10
71.25
 20
119.0
 30
0.0
 10
71.25
 20
119.0
 30
0.0
 10
71.25
 20
119.0
 30
0.0
 10
65.25
 20
119.0
 30
0.0
 10
65.25
 20
119.0
 30
0.0
 10
65.25
 20
119.0
 30
0.0
 10
65.25
 20
119.0
 30
0.0
 10
65.25
 20
116.0
 30
0.0
 10
65.25
 20
116.0
 30
0.0
 10
65.25
 20
116.0
 30
0.0
 10
65.25
 20
116.0
 30
0.0
 10
55.25
 20
116.0
 30
0.0
 10
55.25
 20
116.0
 30
0.0
 10
55.25
 20
116.0
 30
0.0
 10
55.25
 20
116.0
 30
0.0
 10
55.25
 20
119.0
 30
0.0
 10
55.25
 20
119.0
 30
0.0
  0
SPLINE
  5
48
330
1F
100
AcDbEntity
  8
LAYER_1
 62
   250
370
     9
100
AcDbSpline
210
0.0
220
0.0
230
1.0
 70
    24
 71
     3
 72
     8
 73
     4
 74
     0
 42
0.0000000001
 43
0.0000000001
 40
0.0
 40
0.0
 40
0.0
 40
0.0
 40
1.0
 40
1.0
 40
1.0
 40
1.0
 10
-109.0672
 20
38.75
 30
0.0
 10
-109.0672
 20
38.75
 30
0.0
 10
-108.1978
 20
38.75
 30
0.0
 10
-108.1978
 20
38.75
 30
0.0
  0
SPLINE
  5
49
330
1F
100
AcDbEntity
  8
LAYER_1
 62
   250
370
     9
100
AcDbSpline
210
0.0
220
0.0
230
1.0
 70
    24
 71
     3
 72
     8
 73
     4
 74
     0
 42
0.0000000001
 43
0.0000000001
 40
0.0
 40
0.0
 40
0.0
 40
0.0
 40
1.0
 40
1.0
 40
1.0
 40
1.0
 10
-86.1979
 20
38.75
 30
0.0
 10
-86.1979
 20
38.75
 30
0.0
 10
-76.25
 20
38.75
 30
0.0
 10
-76.25
 20
38.75
 30
0.0
  0
SPLINE
  5
4A
330
1F
100
AcDbEntity
  8
LAYER_1
 62
   250
370
     9
100
AcDbSpline
210
0.0
220
0.0
230
1.0
 70
    11
 71
     3
 72
    36
 73
    32
 74
     0
 42
0.0000000001
 43
0.0000000001
 40
0.0
 40
0.0
 40
0.0
 40
0.0
 40
0.1111111111111111
 40
0.1111111111111111
 40
0.1111111111111111
 40
0.1111111111111111
 40
0.2222222222222222
 40
0.2222222222222222
 40
0.2222222222222222
 40
0.2222222222222222
 40
0.3333333333333333
 40
0.3333333333333333
 40
0.3333333333333333
 40
0.3333333333333333
 40
0.4444444444444444
 40
0.4444444444444444
 40
0.4444444444444444
 40
0.4444444444444444
 40
0.5555555555555556
 40
0.5555555555555556
 40
0.5555555555555556
 40
0.5555555555555556
 40
0.6666666666666666
 40
0.6666666666666666
 40
0.6666666666666666
 40
0.6666666666666666
 40
0.7777777777777778
 40
0.7777777777777778
 40
0.7777777777777778
 40
0.7777777777777778
 40
1.0
 40
1.0
 40
1.0
 40
1.0
 10
-91.45
 20
99.75
 30
0.0
 10
-91.45
 20
99.75
 30
0.0
 10
-84.05
 20
99.75
 30
0.0
 10
-84.05
 20
99.75
 30
0.0
 10
-84.05
 20
99.75
 30
0.0
 10
-83.3351
 20
99.75
 30
0.0
 10
-82.75
 20
100.3349
 30
0.0
 10
-82.75
 20
101.05
 30
0.0
 10
-82.75
 20
101.05
 30
0.0
 10
-82.75
 20
101.05
 30
0.0
 10
-82.75
 20
108.45
 30
0.0
 10
-82.75
 20
108.45
 30
0.0
 10
-82.75
 20
108.45
 30
0.0
 10
-82.75
 20
109.1651
 30
0.0
 10
-83.3351
 20
109.75
 30
0.0
 10
-84.05
 20
109.75
 30
0.0
 10
-84.05
 20
109.75
 30
0.0
 10
-84.05
 20
109.75
 30
0.0
 10
-91.45
 20
109.75
 30
0.0
 10
-91.45
 20
109.75
 30
0.0
 10
-91.45
 20
109.75
 30
0.0
 10
-92.1651
 20
109.75
 30
0.0
 10
-92.75
 20
109.1651
 30
0.0
 10
-92.75
 20
108.45
 30
0.0
 10
-92.75
 20
108.45
 30
0.0
 10
-92.75
 20
108.45
 30
0.0
 10
-92.75
 20
101.05
 30
0.0
 10
-92.75
 20
101.05
 30
0.0
 10
-92.75
 20
101.05
 30
0.0
 10
-92.75
 20
100.3349
 30
0.0
 10
-92.1651
 20
99.75
 30
0.0
 10
-91.45
 20
99.75
 30
0.0
  0
ENDSEC
  0
SECTION
  2
OBJECTS
  0
DICTIONARY
  5
C
330
0
100
AcDbDictionary
281
     1
  3
ACAD_GROUP
350
D
  3
ACAD_LAYOUT
350
1A
  3
ACAD_MATERIAL
350
3B
  3
ACAD_MLEADERSTYLE
350
6C
  3
ACAD_MLINESTYLE
350
17
  3
ACAD_PLOTSETTINGS
350
19
  3
ACAD_PLOTSTYLENAME
350
E
  3
ACAD_TABLESTYLE
350
6B
  3
ACAD_VISUALSTYLE
350
2A
  0
DICTIONARY
  5
D
102
{ACAD_REACTORS
330
C
102
}
330
C
100
AcDbDictionary
281
     1
  0
DICTIONARY
  5
1A
102
{ACAD_REACTORS
330
C
102
}
330
C
100
AcDbDictionary
281
     1
  3
Layout1
350
1E
  3
Layout2
350
26
  3
Model
350
22
  0
DICTIONARY
  5
3B
102
{ACAD_REACTORS
330
C
102
}
330
C
100
AcDbDictionary
281
     1
  3
ByBlock
350
3D
  3
ByLayer
350
3C
  3
Global
350
3E
  0
DICTIONARY
  5
6C
102
{ACAD_REACTORS
330
C
102
}
330
C
100
AcDbDictionary
281
     1
  0
DICTIONARY
  5
17
102
{ACAD_REACTORS
330
C
102
}
330
C
100
AcDbDictionary
281
     1
  3
Standard
350
18
  0
DICTIONARY
  5
19
102
{ACAD_REACTORS
330
C
102
}
330
C
100
AcDbDictionary
281
     1
  0
ACDBDICTIONARYWDFLT
  5
E
102
{ACAD_REACTORS
330
C
102
}
330
C
100
AcDbDictionary
281
     1
  3
Normal
350
F
100
AcDbDictionaryWithDefault
340
F
  0
DICTIONARY
  5
6B
102
{ACAD_REACTORS
330
C
102
}
330
C
100
AcDbDictionary
281
     1
  0
DICTIONARY
  5
2A
102
{ACAD_REACTORS
330
C
102
}
330
C
100
AcDbDictionary
281
     1
  3
2dWireframe
350
2F
  3
3D Hidden
350
31
  3
3dWireframe
350
30
  3
Basic
350
32
  3
Brighten
350
36
  3
ColorChange
350
3A
  3
Conceptual
350
34
  3
Dim
350
35
  3
Facepattern
350
39
  3
Flat
350
2B
  3
FlatWithEdges
350
2C
  3
Gouraud
350
2D
  3
GouraudWithEdges
350
2E
  3
Linepattern
350
38
  3
Realistic
350
33
  3
Thicken
350
37
  0
LAYOUT
  5
1E
102
{ACAD_REACTORS
330
1A
102
}
330
1A
100
AcDbPlotSettings
  1

  2
none_device
  4

  6

 40
0.0
 41
0.0
 42
0.0
 43
0.0
 44
0.0
 45
0.0
 46
0.0
 47
0.0
 48
0.0
 49
0.0
140
0.0
141
0.0
142
1.0
143
1.0
 70
   688
 72
     0
 73
     0
 74
     5
  7

 75
    16
 76
     0
 77
     2
 78
   300
147
1.0
148
0.0
149
0.0
100
AcDbLayout
  1
Layout1
 70
     1
 71
     1
 10
0.0
 20
0.0
 11
12.0
 21
9.0
 12
0.0
 22
0.0
 32
0.0
 14
1.000000000000000E+20
 24
1.000000000000000E+20
 34
1.000000000000000E+20
 15
-1.000000000000000E+20
 25
-1.000000000000000E+20
 35
-1.000000000000000E+20
146
0.0
 13
0.0
 23
0.0
 33
0.0
 16
1.0
 26
0.0
 36
0.0
 17
0.0
 27
1.0
 37
0.0
 76
     0
330
1B
  0
LAYOUT
  5
26
102
{ACAD_REACTORS
330
1A
102
}
330
1A
100
AcDbPlotSettings
  1

  2
none_device
  4

  6

 40
0.0
 41
0.0
 42
0.0
 43
0.0
 44
0.0
 45
0.0
 46
0.0
 47
0.0
 48
0.0
 49
0.0
140
0.0
141
0.0
142
1.0
143
1.0
 70
   688
 72
     0
 73
     0
 74
     5
  7

 75
    16
 76
     0
 77
     2
 78
   300
147
1.0
148
0.0
149
0.0
100
AcDbLayout
  1
Layout2
 70
     1
 71
     2
 10
0.0
 20
0.0
 11
0.0
 21
0.0
 12
0.0
 22
0.0
 32
0.0
 14
0.0
 24
0.0
 34
0.0
 15
0.0
 25
0.0
 35
0.0
146
0.0
 13
0.0
 23
0.0
 33
0.0
 16
1.0
 26
0.0
 36
0.0
 17
0.0
 27
1.0
 37
0.0
 76
     0
330
23
  0
LAYOUT
  5
22
102
{ACAD_REACTORS
330
1A
102
}
330
1A
100
AcDbPlotSettings
  1

  2
none_device
  4

  6

 40
0.0
 41
0.0
 42
0.0
 43
0.0
 44
0.0
 45
0.0
 46
0.0
 47
0.0
 48
0.0
 49
0.0
140
0.0
141
0.0
142
1.0
143
1.0
 70
  1712
 72
     0
 73
     0
 74
     0
  7

 75
     0
 76
     0
 77
     2
 78
   300
147
1.0
148
0.0
149
0.0
100
AcDbLayout
  1
Model
 70
     1
 71
     0
 10
0.0
 20
0.0
 11
12.0
 21
9.0
 12
0.0
 22
0.0
 32
0.0
 14
-121.2881
 24
6.7119
 34
0.0
 15
74.2881
 25
123.2205
 35
0.0
146
0.0
 13
0.0
 23
0.0
 33
0.0
 16
1.0
 26
0.0
 36
0.0
 17
0.0
 27
1.0
 37
0.0
 76
     0
330
1F
331
29
  0
MATERIAL
  5
3D
102
{ACAD_REACTORS
330
3B
102
}
330
3B
100
AcDbMaterial
  1
ByBlock
 72
     1
 94
      127
  0
MATERIAL
  5
3C
102
{ACAD_REACTORS
330
3B
102
}
330
3B
100
AcDbMaterial
  1
ByLayer
 72
     1
 94
      127
  0
MATERIAL
  5
3E
102
{ACAD_REACTORS
330
3B
102
}
330
3B
100
AcDbMaterial
  1
Global
 72
     1
 94
      127
  0
MLINESTYLE
  5
18
102
{ACAD_REACTORS
330
17
102
}
330
17
100
AcDbMlineStyle
  2
Standard
 70
     0
  3

 62
   256
 51
90.0
 52
90.0
 71
     2
 49
0.5
 62
   256
  6
BYLAYER
 49
-0.5
 62
   256
  6
BYLAYER
  0
ACDBPLACEHOLDER
  5
F
102
{ACAD_REACTORS
330
E
102
}
330
E
  0
VISUALSTYLE
  5
2F
102
{ACAD_REACTORS
330
2A
102
}
102
{ACAD_XDICTIONARY
360
53
102
}
330
2A
100
AcDbVisualStyle
  2
2dWireframe
 70
     4
 71
     0
 72
     2
 73
     0
 90
        0
 40
-0.6
 41
-30.0
 62
     5
 63
     7
421
 16777215
 74
     1
 91
        4
 64
     7
 65
   257
 75
     1
175
     1
 42
1.0
 92
        0
 66
   257
 43
1.0
 76
     1
 77
     6
 78
     2
 67
     7
 79
     5
170
     0
171
     0
290
     0
174
     0
 93
        1
 44
0.0
173
     0
291
     0
 45
0.0
  0
VISUALSTYLE
  5
31
102
{ACAD_REACTORS
330
2A
102
}
102
{ACAD_XDICTIONARY
360
57
102
}
330
2A
100
AcDbVisualStyle
  2
3D Hidden
 70
     6
 71
     1
 72
     2
 73
     2
 90
        0
 40
-0.6
 41
-30.0
 62
     5
 63
     7
421
 16777215
 74
     2
 91
        2
 64
     7
 65
   257
 75
     2
175
     1
 42
40.0
 92
        0
 66
   257
 43
1.0
 76
     1
 77
     6
 78
     2
 67
     7
 79
     3
170
     0
171
     0
290
     0
174
     0
 93
        1
 44
0.0
173
     0
291
     0
 45
0.0
  0
VISUALSTYLE
  5
30
102
{ACAD_REACTORS
330
2A
102
}
102
{ACAD_XDICTIONARY
360
55
102
}
330
2A
100
AcDbVisualStyle
  2
3dWireframe
 70
     5
 71
     0
 72
     2
 73
     0
 90
        0
 40
-0.6
 41
-30.0
 62
     5
 63
     7
421
 16777215
 74
     1
 91
        4
 64
     7
 65
   257
 75
     1
175
     1
 42
1.0
 92
        0
 66
   257
 43
1.0
 76
     1
 77
     6
 78
     2
 67
     7
 79
     5
170
     0
171
     0
290
     0
174
     0
 93
        1
 44
0.0
173
     0
291
     0
 45
0.0
  0
VISUALSTYLE
  5
32
102
{ACAD_REACTORS
330
2A
102
}
102
{ACAD_XDICTIONARY
360
59
102
}
330
2A
100
AcDbVisualStyle
  2
Basic
 70
     7
 71
     1
 72
     0
 73
     1
 90
        0
 40
-0.6
 41
-30.0
 62
     5
 63
     7
421
 16777215
 74
     0
 91
        4
 64
     7
 65
   257
 75
     1
175
     1
 42
1.0
 92
        8
 66
     7
 43
1.0
 76
     1
 77
     6
 78
     2
 67
     7
 79
     5
170
     0
171
     0
290
     0
174
     0
 93
        1
 44
0.0
173
     0
291
     1
 45
0.0
  0
VISUALSTYLE
  5
36
102
{ACAD_REACTORS
330
2A
102
}
102
{ACAD_XDICTIONARY
360
61
102
}
330
2A
100
AcDbVisualStyle
  2
Brighten
 70
    12
 71
     2
 72
     2
 73
     0
 90
        0
 40
-0.6
 41
-30.0
 62
     5
 63
     7
421
 16777215
 74
     1
 91
        4
 64
     7
 65
   257
 75
     1
175
     1
 42
1.0
 92
        8
 66
     7
 43
1.0
 76
     1
 77
     6
 78
     2
 67
     7
 79
     5
170
     0
171
     0
290
     0
174
     0
 93
        1
 44
50.0
173
     0
291
     1
 45
0.0
  0
VISUALSTYLE
  5
3A
102
{ACAD_REACTORS
330
2A
102
}
102
{ACAD_XDICTIONARY
360
69
102
}
330
2A
100
AcDbVisualStyle
  2
ColorChange
 70
    16
 71
     2
 72
     2
 73
     3
 90
        0
 40
-0.6
 41
-30.0
 62
     5
 63
     8
421
  8421504
 74
     1
 91
        4
 64
     7
 65
   257
 75
     1
175
     1
 42
1.0
 92
        8
 66
     8
424
  8421504
 43
1.0
 76
     1
 77
     6
 78
     2
 67
     7
 79
     5
170
     0
171
     0
290
     0
174
     0
 93
        1
 44
0.0
173
     0
291
     1
 45
0.0
  0
VISUALSTYLE
  5
34
102
{ACAD_REACTORS
330
2A
102
}
102
{ACAD_XDICTIONARY
360
5D
102
}
330
2A
100
AcDbVisualStyle
  2
Conceptual
 70
     9
 71
     3
 72
     2
 73
     0
 90
        0
 40
-0.6
 41
-30.0
 62
     5
 63
     7
421
 16777215
 74
     2
 91
        2
 64
     7
 65
   257
 75
     1
175
     1
 42
40.0
 92
        8
 66
     7
 43
1.0
 76
     1
 77
     6
 78
     2
 67
     7
 79
     3
170
     0
171
     0
290
     0
174
     0
 93
        1
 44
0.0
173
     0
291
     0
 45
0.0
  0
VISUALSTYLE
  5
35
102
{ACAD_REACTORS
330
2A
102
}
102
{ACAD_XDICTIONARY
360
5F
102
}
330
2A
100
AcDbVisualStyle
  2
Dim
 70
    11
 71
     2
 72
     2
 73
     0
 90
        0
 40
-0.6
 41
-30.0
 62
     5
 63
     7
421
 16777215
 74
     1
 91
        4
 64
     7
 65
   257
 75
     1
175
     1
 42
1.0
 92
        8
 66
     7
 43
1.0
 76
     1
 77
     6
 78
     2
 67
     7
 79
     5
170
     0
171
     0
290
     0
174
     0
 93
        1
 44
-50.0
173
     0
291
     1
 45
0.0
  0
VISUALSTYLE
  5
39
102
{ACAD_REACTORS
330
2A
102
}
102
{ACAD_XDICTIONARY
360
67
102
}
330
2A
100
AcDbVisualStyle
  2
Facepattern
 70
    15
 71
     2
 72
     2
 73
     0
 90
        0
 40
-0.6
 41
-30.0
 62
     5
 63
     7
421
 16777215
 74
     1
 91
        4
 64
     7
 65
   257
 75
     1
175
     1
 42
1.0
 92
        8
 66
     7
 43
1.0
 76
     1
 77
     6
 78
     2
 67
     7
 79
     5
170
     0
171
     0
290
     0
174
     0
 93
        1
 44
0.0
173
     0
291
     1
 45
0.0
  0
VISUALSTYLE
  5
2B
102
{ACAD_REACTORS
330
2A
102
}
102
{ACAD_XDICTIONARY
360
4B
102
}
330
2A
100
AcDbVisualStyle
  2
Flat
 70
     0
 71
     2
 72
     1
 73
     1
 90
        2
 40
-0.6
 41
30.0
 62
     5
 63
     7
421
 16777215
 74
     0
 91
        4
 64
     7
 65
   257
 75
     1
175
     1
 42
1.0
 92
        8
 66
     7
 43
1.0
 76
     1
 77
     6
 78
     2
 67
     7
 79
     5
170
     0
171
     0
290
     0
174
     0
 93
       13
 44
0.0
173
     0
291
     1
 45
0.0
  0
VISUALSTYLE
  5
2C
102
{ACAD_REACTORS
330
2A
102
}
102
{ACAD_XDICTIONARY
360
4D
102
}
330
2A
100
AcDbVisualStyle
  2
FlatWithEdges
 70
     1
 71
     2
 72
     1
 73
     1
 90
        2
 40
-0.6
 41
30.0
 62
     5
 63
     7
421
 16777215
 74
     1
 91
        4
 64
     7
 65
   257
 75
     1
175
     1
 42
1.0
 92
        0
 66
   257
 43
1.0
 76
     1
 77
     6
 78
     2
 67
     7
 79
     5
170
     0
171
     0
290
     0
174
     0
 93
       13
 44
0.0
173
     0
291
     1
 45
0.0
  0
VISUALSTYLE
  5
2D
102
{ACAD_REACTORS
330
2A
102
}
102
{ACAD_XDICTIONARY
360
4F
102
}
330
2A
100
AcDbVisualStyle
  2
Gouraud
 70
     2
 71
     2
 72
     2
 73
     1
 90
        2
 40
-0.6
 41
30.0
 62
     5
 63
     7
421
 16777215
 74
     0
 91
        4
 64
     7
 65
   257
 75
     1
175
     1
 42
1.0
 92
        0
 66
     7
 43
1.0
 76
     1
 77
     6
 78
     2
 67
     7
 79
     5
170
     0
171
     0
290
     0
174
     0
 93
       13
 44
0.0
173
     0
291
     1
 45
0.0
  0
VISUALSTYLE
  5
2E
102
{ACAD_REACTORS
330
2A
102
}
102
{ACAD_XDICTIONARY
360
51
102
}
330
2A
100
AcDbVisualStyle
  2
GouraudWithEdges
 70
     3
 71
     2
 72
     2
 73
     1
 90
        2
 40
-0.6
 41
30.0
 62
     5
 63
     7
421
 16777215
 74
     1
 91
        4
 64
     7
 65
   257
 75
     1
175
     1
 42
1.0
 92
        0
 66
   257
 43
1.0
 76
     1
 77
     6
 78
     2
 67
     7
 79
     5
170
     0
171
     0
290
     0
174
     0
 93
       13
 44
0.0
173
     0
291
     1
 45
0.0
  0
VISUALSTYLE
  5
38
102
{ACAD_REACTORS
330
2A
102
}
102
{ACAD_XDICTIONARY
360
65
102
}
330
2A
100
AcDbVisualStyle
  2
Linepattern
 70
    14
 71
     2
 72
     2
 73
     0
 90
        0
 40
-0.6
 41
-30.0
 62
     5
 63
     7
421
 16777215
 74
     1
 91
        4
 64
     7
 65
   257
 75
     7
175
     7
 42
1.0
 92
        8
 66
     7
 43
1.0
 76
     1
 77
     6
 78
     2
 67
     7
 79
     5
170
     0
171
     0
290
     0
174
     0
 93
        1
 44
0.0
173
     0
291
     1
 45
0.0
  0
VISUALSTYLE
  5
33
102
{ACAD_REACTORS
330
2A
102
}
102
{ACAD_XDICTIONARY
360
5B
102
}
330
2A
100
AcDbVisualStyle
  2
Realistic
 70
     8
 71
     2
 72
     2
 73
     0
 90
        0
 40
-0.6
 41
-30.0
 62
     5
 63
     7
421
 16777215
 74
     1
 91
        0
 64
     7
 65
   257
 75
     1
175
     1
 42
1.0
 92
        8
 66
     8
424
  7895160
 43
1.0
 76
     1
 77
     6
 78
     2
 67
     7
 79
     5
170
     0
171
     0
290
     0
174
     0
 93
       13
 44
0.0
173
     0
291
     0
 45
0.0
  0
VISUALSTYLE
  5
37
102
{ACAD_REACTORS
330
2A
102
}
102
{ACAD_XDICTIONARY
360
63
102
}
330
2A
100
AcDbVisualStyle
  2
Thicken
 70
    13
 71
     2
 72
     2
 73
     0
 90
        0
 40
-0.6
 41
-30.0
 62
     5
 63
     7
421
 16777215
 74
     1
 91
        4
 64
     7
 65
   257
 75
     1
175
     1
 42
1.0
 92
       12
 66
     7
 43
1.0
 76
     1
 77
     6
 78
     2
 67
     7
 79
     5
170
     0
171
     0
290
     0
174
     0
 93
        1
 44
0.0
173
     0
291
     1
 45
0.0
  0
DICTIONARY
  5
53
330
2F
100
AcDbDictionary
280
     1
281
     1
  3
ACAD_XREC_ROUNDTRIP
360
54
  0
DICTIONARY
  5
57
330
31
100
AcDbDictionary
280
     1
281
     1
  3
ACAD_XREC_ROUNDTRIP
360
58
  0
DICTIONARY
  5
55
330
30
100
AcDbDictionary
280
     1
281
     1
  3
ACAD_XREC_ROUNDTRIP
360
56
  0
DICTIONARY
  5
59
330
32
100
AcDbDictionary
280
     1
281
     1
  3
ACAD_XREC_ROUNDTRIP
360
5A
  0
DICTIONARY
  5
61
330
36
100
AcDbDictionary
280
     1
281
     1
  3
ACAD_XREC_ROUNDTRIP
360
62
  0
DICTIONARY
  5
69
330
3A
100
AcDbDictionary
280
     1
281
     1
  3
ACAD_XREC_ROUNDTRIP
360
6A
  0
DICTIONARY
  5
5D
330
34
100
AcDbDictionary
280
     1
281
     1
  3
ACAD_XREC_ROUNDTRIP
360
5E
  0
DICTIONARY
  5
5F
330
35
100
AcDbDictionary
280
     1
281
     1
  3
ACAD_XREC_ROUNDTRIP
360
60
  0
DICTIONARY
  5
67
330
39
100
AcDbDictionary
280
     1
281
     1
  3
ACAD_XREC_ROUNDTRIP
360
68
  0
DICTIONARY
  5
4B
330
2B
100
AcDbDictionary
280
     1
281
     1
  3
ACAD_XREC_ROUNDTRIP
360
4C
  0
DICTIONARY
  5
4D
330
2C
100
AcDbDictionary
280
     1
281
     1
  3
ACAD_XREC_ROUNDTRIP
360
4E
  0
DICTIONARY
  5
4F
330
2D
100
AcDbDictionary
280
     1
281
     1
  3
ACAD_XREC_ROUNDTRIP
360
50
  0
DICTIONARY
  5
51
330
2E
100
AcDbDictionary
280
     1
281
     1
  3
ACAD_XREC_ROUNDTRIP
360
52
  0
DICTIONARY
  5
65
330
38
100
AcDbDictionary
280
     1
281
     1
  3
ACAD_XREC_ROUNDTRIP
360
66
  0
DICTIONARY
  5
5B
330
33
100
AcDbDictionary
280
     1
281
     1
  3
ACAD_XREC_ROUNDTRIP
360
5C
  0
DICTIONARY
  5
63
330
37
100
AcDbDictionary
280
     1
281
     1
  3
ACAD_XREC_ROUNDTRIP
360
64
  0
XRECORD
  5
54
102
{ACAD_REACTORS
330
53
102
}
330
53
100
AcDbXrecord
280
     1
102
RTVSPropertyOp0
 70
     1
102
RTVSPropertyOp1
 70
     1
102
RTVSPropertyOp2
 70
     1
102
RTVSPropertyOp3
 70
     1
102
RTVSPropertyOp4
 70
     1
102
RTVSPropertyOp5
 70
     1
102
RTVSPropertyOp6
 70
     1
102
RTVSPropertyOp7
 70
     1
102
RTVSPropertyOp8
 70
     1
102
RTVSPropertyOp9
 70
     1
102
RTVSPropertyOp10
 70
     1
102
RTVSPropertyOp11
 70
     1
102
RTVSPropertyOp12
 70
     1
102
RTVSPropertyOp13
 70
     1
102
RTVSPropertyOp14
 70
     1
102
RTVSPropertyOp15
 70
     1
102
RTVSPropertyOp16
 70
     1
102
RTVSPropertyOp17
 70
     1
102
RTVSPropertyOp18
 70
     1
102
RTVSPropertyOp19
 70
     1
102
RTVSPropertyOp20
 70
     1
102
RTVSPropertyOp21
 70
     1
102
RTVSPropertyOp22
 70
     1
102
RTVSPropertyOp23
 70
     1
102
RTVSPropertyOp24
 70
     1
102
RTVSPropertyOp25
 70
     1
102
RTVSPropertyOp26
 70
     1
102
RTVSPropertyOp27
 70
     1
  0
XRECORD
  5
58
102
{ACAD_REACTORS
330
57
102
}
330
57
100
AcDbXrecord
280
     1
102
RTVSPropertyOp0
 70
     1
102
RTVSPropertyOp1
 70
     1
102
RTVSPropertyOp2
 70
     1
102
RTVSPropertyOp3
 70
     1
102
RTVSPropertyOp4
 70
     1
102
RTVSPropertyOp5
 70
     1
102
RTVSPropertyOp6
 70
     1
102
RTVSPropertyOp7
 70
     1
102
RTVSPropertyOp8
 70
     1
102
RTVSPropertyOp9
 70
     1
102
RTVSPropertyOp10
 70
     1
102
RTVSPropertyOp11
 70
     1
102
RTVSPropertyOp12
 70
     1
102
RTVSPropertyOp13
 70
     1
102
RTVSPropertyOp14
 70
     1
102
RTVSPropertyOp15
 70
     1
102
RTVSPropertyOp16
 70
     1
102
RTVSPropertyOp17
 70
     1
102
RTVSPropertyOp18
 70
     1
102
RTVSPropertyOp19
 70
     1
102
RTVSPropertyOp20
 70
     1
102
RTVSPropertyOp21
 70
     1
102
RTVSPropertyOp22
 70
     1
102
RTVSPropertyOp23
 70
     1
102
RTVSPropertyOp24
 70
     1
102
RTVSPropertyOp25
 70
     1
102
RTVSPropertyOp26
 70
     1
102
RTVSPropertyOp27
 70
     1
  0
XRECORD
  5
56
102
{ACAD_REACTORS
330
55
102
}
330
55
100
AcDbXrecord
280
     1
102
RTVSPropertyOp0
 70
     1
102
RTVSPropertyOp1
 70
     1
102
RTVSPropertyOp2
 70
     1
102
RTVSPropertyOp3
 70
     1
102
RTVSPropertyOp4
 70
     1
102
RTVSPropertyOp5
 70
     1
102
RTVSPropertyOp6
 70
     1
102
RTVSPropertyOp7
 70
     1
102
RTVSPropertyOp8
 70
     1
102
RTVSPropertyOp9
 70
     1
102
RTVSPropertyOp10
 70
     1
102
RTVSPropertyOp11
 70
     1
102
RTVSPropertyOp12
 70
     1
102
RTVSPropertyOp13
 70
     1
102
RTVSPropertyOp14
 70
     1
102
RTVSPropertyOp15
 70
     1
102
RTVSPropertyOp16
 70
     1
102
RTVSPropertyOp17
 70
     1
102
RTVSPropertyOp18
 70
     1
102
RTVSPropertyOp19
 70
     1
102
RTVSPropertyOp20
 70
     1
102
RTVSPropertyOp21
 70
     1
102
RTVSPropertyOp22
 70
     1
102
RTVSPropertyOp23
 70
     1
102
RTVSPropertyOp24
 70
     1
102
RTVSPropertyOp25
 70
     1
102
RTVSPropertyOp26
 70
     1
102
RTVSPropertyOp27
 70
     1
  0
XRECORD
  5
5A
102
{ACAD_REACTORS
330
59
102
}
330
59
100
AcDbXrecord
280
     1
102
RTVSPropertyOp0
 70
     1
102
RTVSPropertyOp1
 70
     1
102
RTVSPropertyOp2
 70
     1
102
RTVSPropertyOp3
 70
     1
102
RTVSPropertyOp4
 70
     1
102
RTVSPropertyOp5
 70
     1
102
RTVSPropertyOp6
 70
     1
102
RTVSPropertyOp7
 70
     1
102
RTVSPropertyOp8
 70
     1
102
RTVSPropertyOp9
 70
     1
102
RTVSPropertyOp10
 70
     1
102
RTVSPropertyOp11
 70
     1
102
RTVSPropertyOp12
 70
     1
102
RTVSPropertyOp13
 70
     1
102
RTVSPropertyOp14
 70
     1
102
RTVSPropertyOp15
 70
     1
102
RTVSPropertyOp16
 70
     1
102
RTVSPropertyOp17
 70
     1
102
RTVSPropertyOp18
 70
     1
102
RTVSPropertyOp19
 70
     1
102
RTVSPropertyOp20
 70
     1
102
RTVSPropertyOp21
 70
     1
102
RTVSPropertyOp22
 70
     1
102
RTVSPropertyOp23
 70
     1
102
RTVSPropertyOp24
 70
     1
102
RTVSPropertyOp25
 70
     1
102
RTVSPropertyOp26
 70
     1
102
RTVSPropertyOp27
 70
     1
  0
XRECORD
  5
62
102
{ACAD_REACTORS
330
61
102
}
330
61
100
AcDbXrecord
280
     1
102
RTVSPropertyOp0
 70
     1
102
RTVSPropertyOp1
 70
     1
102
RTVSPropertyOp2
 70
     1
102
RTVSPropertyOp3
 70
     1
102
RTVSPropertyOp4
 70
     1
102
RTVSPropertyOp5
 70
     1
102
RTVSPropertyOp6
 70
     1
102
RTVSPropertyOp7
 70
     1
102
RTVSPropertyOp8
 70
     1
102
RTVSPropertyOp9
 70
     1
102
RTVSPropertyOp10
 70
     1
102
RTVSPropertyOp11
 70
     1
102
RTVSPropertyOp12
 70
     1
102
RTVSPropertyOp13
 70
     1
102
RTVSPropertyOp14
 70
     1
102
RTVSPropertyOp15
 70
     1
102
RTVSPropertyOp16
 70
     1
102
RTVSPropertyOp17
 70
     1
102
RTVSPropertyOp18
 70
     1
102
RTVSPropertyOp19
 70
     1
102
RTVSPropertyOp20
 70
     1
102
RTVSPropertyOp21
 70
     1
102
RTVSPropertyOp22
 70
     1
102
RTVSPropertyOp23
 70
     1
102
RTVSPropertyOp24
 70
     1
102
RTVSPropertyOp25
 70
     1
102
RTVSPropertyOp26
 70
     1
102
RTVSPropertyOp27
 70
     1
  0
XRECORD
  5
6A
102
{ACAD_REACTORS
330
69
102
}
330
69
100
AcDbXrecord
280
     1
102
RTVSPropertyOp0
 70
     1
102
RTVSPropertyOp1
 70
     1
102
RTVSPropertyOp2
 70
     1
102
RTVSPropertyOp3
 70
     1
102
RTVSPropertyOp4
 70
     1
102
RTVSPropertyOp5
 70
     1
102
RTVSPropertyOp6
 70
     1
102
RTVSPropertyOp7
 70
     1
102
RTVSPropertyOp8
 70
     1
102
RTVSPropertyOp9
 70
     1
102
RTVSPropertyOp10
 70
     1
102
RTVSPropertyOp11
 70
     1
102
RTVSPropertyOp12
 70
     1
102
RTVSPropertyOp13
 70
     1
102
RTVSPropertyOp14
 70
     1
102
RTVSPropertyOp15
 70
     1
102
RTVSPropertyOp16
 70
     1
102
RTVSPropertyOp17
 70
     1
102
RTVSPropertyOp18
 70
     1
102
RTVSPropertyOp19
 70
     1
102
RTVSPropertyOp20
 70
     1
102
RTVSPropertyOp21
 70
     1
102
RTVSPropertyOp22
 70
     1
102
RTVSPropertyOp23
 70
     1
102
RTVSPropertyOp24
 70
     1
102
RTVSPropertyOp25
 70
     1
102
RTVSPropertyOp26
 70
     1
102
RTVSPropertyOp27
 70
     1
  0
XRECORD
  5
5E
102
{ACAD_REACTORS
330
5D
102
}
330
5D
100
AcDbXrecord
280
     1
102
RTVSPropertyOp0
 70
     1
102
RTVSPropertyOp1
 70
     1
102
RTVSPropertyOp2
 70
     1
102
RTVSPropertyOp3
 70
     1
102
RTVSPropertyOp4
 70
     1
102
RTVSPropertyOp5
 70
     1
102
RTVSPropertyOp6
 70
     1
102
RTVSPropertyOp7
 70
     1
102
RTVSPropertyOp8
 70
     1
102
RTVSPropertyOp9
 70
     1
102
RTVSPropertyOp10
 70
     1
102
RTVSPropertyOp11
 70
     1
102
RTVSPropertyOp12
 70
     1
102
RTVSPropertyOp13
 70
     1
102
RTVSPropertyOp14
 70
     1
102
RTVSPropertyOp15
 70
     1
102
RTVSPropertyOp16
 70
     1
102
RTVSPropertyOp17
 70
     1
102
RTVSPropertyOp18
 70
     1
102
RTVSPropertyOp19
 70
     1
102
RTVSPropertyOp20
 70
     1
102
RTVSPropertyOp21
 70
     1
102
RTVSPropertyOp22
 70
     1
102
RTVSPropertyOp23
 70
     1
102
RTVSPropertyOp24
 70
     1
102
RTVSPropertyOp25
 70
     1
102
RTVSPropertyOp26
 70
     1
102
RTVSPropertyOp27
 70
     1
  0
XRECORD
  5
60
102
{ACAD_REACTORS
330
5F
102
}
330
5F
100
AcDbXrecord
280
     1
102
RTVSPropertyOp0
 70
     1
102
RTVSPropertyOp1
 70
     1
102
RTVSPropertyOp2
 70
     1
102
RTVSPropertyOp3
 70
     1
102
RTVSPropertyOp4
 70
     1
102
RTVSPropertyOp5
 70
     1
102
RTVSPropertyOp6
 70
     1
102
RTVSPropertyOp7
 70
     1
102
RTVSPropertyOp8
 70
     1
102
RTVSPropertyOp9
 70
     1
102
RTVSPropertyOp10
 70
     1
102
RTVSPropertyOp11
 70
     1
102
RTVSPropertyOp12
 70
     1
102
RTVSPropertyOp13
 70
     1
102
RTVSPropertyOp14
 70
     1
102
RTVSPropertyOp15
 70
     1
102
RTVSPropertyOp16
 70
     1
102
RTVSPropertyOp17
 70
     1
102
RTVSPropertyOp18
 70
     1
102
RTVSPropertyOp19
 70
     1
102
RTVSPropertyOp20
 70
     1
102
RTVSPropertyOp21
 70
     1
102
RTVSPropertyOp22
 70
     1
102
RTVSPropertyOp23
 70
     1
102
RTVSPropertyOp24
 70
     1
102
RTVSPropertyOp25
 70
     1
102
RTVSPropertyOp26
 70
     1
102
RTVSPropertyOp27
 70
     1
  0
XRECORD
  5
68
102
{ACAD_REACTORS
330
67
102
}
330
67
100
AcDbXrecord
280
     1
102
RTVSPropertyOp0
 70
     1
102
RTVSPropertyOp1
 70
     1
102
RTVSPropertyOp2
 70
     1
102
RTVSPropertyOp3
 70
     1
102
RTVSPropertyOp4
 70
     1
102
RTVSPropertyOp5
 70
     1
102
RTVSPropertyOp6
 70
     1
102
RTVSPropertyOp7
 70
     1
102
RTVSPropertyOp8
 70
     1
102
RTVSPropertyOp9
 70
     1
102
RTVSPropertyOp10
 70
     1
102
RTVSPropertyOp11
 70
     1
102
RTVSPropertyOp12
 70
     1
102
RTVSPropertyOp13
 70
     1
102
RTVSPropertyOp14
 70
     1
102
RTVSPropertyOp15
 70
     1
102
RTVSPropertyOp16
 70
     1
102
RTVSPropertyOp17
 70
     1
102
RTVSPropertyOp18
 70
     1
102
RTVSPropertyOp19
 70
     1
102
RTVSPropertyOp20
 70
     1
102
RTVSPropertyOp21
 70
     1
102
RTVSPropertyOp22
 70
     1
102
RTVSPropertyOp23
 70
     1
102
RTVSPropertyOp24
 70
     1
102
RTVSPropertyOp25
 70
     1
102
RTVSPropertyOp26
 70
     1
102
RTVSPropertyOp27
 70
     1
  0
XRECORD
  5
4C
102
{ACAD_REACTORS
330
4B
102
}
330
4B
100
AcDbXrecord
280
     1
102
RTVSPropertyOp0
 70
     1
102
RTVSPropertyOp1
 70
     1
102
RTVSPropertyOp2
 70
     1
102
RTVSPropertyOp3
 70
     1
102
RTVSPropertyOp4
 70
     1
102
RTVSPropertyOp5
 70
     1
102
RTVSPropertyOp6
 70
     1
102
RTVSPropertyOp7
 70
     1
102
RTVSPropertyOp8
 70
     1
102
RTVSPropertyOp9
 70
     1
102
RTVSPropertyOp10
 70
     1
102
RTVSPropertyOp11
 70
     1
102
RTVSPropertyOp12
 70
     1
102
RTVSPropertyOp13
 70
     1
102
RTVSPropertyOp14
 70
     1
102
RTVSPropertyOp15
 70
     1
102
RTVSPropertyOp16
 70
     1
102
RTVSPropertyOp17
 70
     1
102
RTVSPropertyOp18
 70
     1
102
RTVSPropertyOp19
 70
     1
102
RTVSPropertyOp20
 70
     1
102
RTVSPropertyOp21
 70
     1
102
RTVSPropertyOp22
 70
     1
102
RTVSPropertyOp23
 70
     1
102
RTVSPropertyOp24
 70
     1
102
RTVSPropertyOp25
 70
     1
102
RTVSPropertyOp26
 70
     1
102
RTVSPropertyOp27
 70
     1
  0
XRECORD
  5
4E
102
{ACAD_REACTORS
330
4D
102
}
330
4D
100
AcDbXrecord
280
     1
102
RTVSPropertyOp0
 70
     1
102
RTVSPropertyOp1
 70
     1
102
RTVSPropertyOp2
 70
     1
102
RTVSPropertyOp3
 70
     1
102
RTVSPropertyOp4
 70
     1
102
RTVSPropertyOp5
 70
     1
102
RTVSPropertyOp6
 70
     1
102
RTVSPropertyOp7
 70
     1
102
RTVSPropertyOp8
 70
     1
102
RTVSPropertyOp9
 70
     1
102
RTVSPropertyOp10
 70
     1
102
RTVSPropertyOp11
 70
     1
102
RTVSPropertyOp12
 70
     1
102
RTVSPropertyOp13
 70
     1
102
RTVSPropertyOp14
 70
     1
102
RTVSPropertyOp15
 70
     1
102
RTVSPropertyOp16
 70
     1
102
RTVSPropertyOp17
 70
     1
102
RTVSPropertyOp18
 70
     1
102
RTVSPropertyOp19
 70
     1
102
RTVSPropertyOp20
 70
     1
102
RTVSPropertyOp21
 70
     1
102
RTVSPropertyOp22
 70
     1
102
RTVSPropertyOp23
 70
     1
102
RTVSPropertyOp24
 70
     1
102
RTVSPropertyOp25
 70
     1
102
RTVSPropertyOp26
 70
     1
102
RTVSPropertyOp27
 70
     1
  0
XRECORD
  5
50
102
{ACAD_REACTORS
330
4F
102
}
330
4F
100
AcDbXrecord
280
     1
102
RTVSPropertyOp0
 70
     1
102
RTVSPropertyOp1
 70
     1
102
RTVSPropertyOp2
 70
     1
102
RTVSPropertyOp3
 70
     1
102
RTVSPropertyOp4
 70
     1
102
RTVSPropertyOp5
 70
     1
102
RTVSPropertyOp6
 70
     1
102
RTVSPropertyOp7
 70
     1
102
RTVSPropertyOp8
 70
     1
102
RTVSPropertyOp9
 70
     1
102
RTVSPropertyOp10
 70
     1
102
RTVSPropertyOp11
 70
     1
102
RTVSPropertyOp12
 70
     1
102
RTVSPropertyOp13
 70
     1
102
RTVSPropertyOp14
 70
     1
102
RTVSPropertyOp15
 70
     1
102
RTVSPropertyOp16
 70
     1
102
RTVSPropertyOp17
 70
     1
102
RTVSPropertyOp18
 70
     1
102
RTVSPropertyOp19
 70
     1
102
RTVSPropertyOp20
 70
     1
102
RTVSPropertyOp21
 70
     1
102
RTVSPropertyOp22
 70
     1
102
RTVSPropertyOp23
 70
     1
102
RTVSPropertyOp24
 70
     1
102
RTVSPropertyOp25
 70
     1
102
RTVSPropertyOp26
 70
     1
102
RTVSPropertyOp27
 70
     1
  0
XRECORD
  5
52
102
{ACAD_REACTORS
330
51
102
}
330
51
100
AcDbXrecord
280
     1
102
RTVSPropertyOp0
 70
     1
102
RTVSPropertyOp1
 70
     1
102
RTVSPropertyOp2
 70
     1
102
RTVSPropertyOp3
 70
     1
102
RTVSPropertyOp4
 70
     1
102
RTVSPropertyOp5
 70
     1
102
RTVSPropertyOp6
 70
     1
102
RTVSPropertyOp7
 70
     1
102
RTVSPropertyOp8
 70
     1
102
RTVSPropertyOp9
 70
     1
102
RTVSPropertyOp10
 70
     1
102
RTVSPropertyOp11
 70
     1
102
RTVSPropertyOp12
 70
     1
102
RTVSPropertyOp13
 70
     1
102
RTVSPropertyOp14
 70
     1
102
RTVSPropertyOp15
 70
     1
102
RTVSPropertyOp16
 70
     1
102
RTVSPropertyOp17
 70
     1
102
RTVSPropertyOp18
 70
     1
102
RTVSPropertyOp19
 70
     1
102
RTVSPropertyOp20
 70
     1
102
RTVSPropertyOp21
 70
     1
102
RTVSPropertyOp22
 70
     1
102
RTVSPropertyOp23
 70
     1
102
RTVSPropertyOp24
 70
     1
102
RTVSPropertyOp25
 70
     1
102
RTVSPropertyOp26
 70
     1
102
RTVSPropertyOp27
 70
     1
  0
XRECORD
  5
66
102
{ACAD_REACTORS
330
65
102
}
330
65
100
AcDbXrecord
280
     1
102
RTVSPropertyOp0
 70
     1
102
RTVSPropertyOp1
 70
     1
102
RTVSPropertyOp2
 70
     1
102
RTVSPropertyOp3
 70
     1
102
RTVSPropertyOp4
 70
     1
102
RTVSPropertyOp5
 70
     1
102
RTVSPropertyOp6
 70
     1
102
RTVSPropertyOp7
 70
     1
102
RTVSPropertyOp8
 70
     1
102
RTVSPropertyOp9
 70
     1
102
RTVSPropertyOp10
 70
     1
102
RTVSPropertyOp11
 70
     1
102
RTVSPropertyOp12
 70
     1
102
RTVSPropertyOp13
 70
     1
102
RTVSPropertyOp14
 70
     1
102
RTVSPropertyOp15
 70
     1
102
RTVSPropertyOp16
 70
     1
102
RTVSPropertyOp17
 70
     1
102
RTVSPropertyOp18
 70
     1
102
RTVSPropertyOp19
 70
     1
102
RTVSPropertyOp20
 70
     1
102
RTVSPropertyOp21
 70
     1
102
RTVSPropertyOp22
 70
     1
102
RTVSPropertyOp23
 70
     1
102
RTVSPropertyOp24
 70
     1
102
RTVSPropertyOp25
 70
     1
102
RTVSPropertyOp26
 70
     1
102
RTVSPropertyOp27
 70
     1
  0
XRECORD
  5
5C
102
{ACAD_REACTORS
330
5B
102
}
330
5B
100
AcDbXrecord
280
     1
102
RTVSPropertyOp0
 70
     1
102
RTVSPropertyOp1
 70
     1
102
RTVSPropertyOp2
 70
     1
102
RTVSPropertyOp3
 70
     1
102
RTVSPropertyOp4
 70
     1
102
RTVSPropertyOp5
 70
     1
102
RTVSPropertyOp6
 70
     1
102
RTVSPropertyOp7
 70
     1
102
RTVSPropertyOp8
 70
     1
102
RTVSPropertyOp9
 70
     1
102
RTVSPropertyOp10
 70
     1
102
RTVSPropertyOp11
 70
     1
102
RTVSPropertyOp12
 70
     1
102
RTVSPropertyOp13
 70
     1
102
RTVSPropertyOp14
 70
     1
102
RTVSPropertyOp15
 70
     1
102
RTVSPropertyOp16
 70
     1
102
RTVSPropertyOp17
 70
     1
102
RTVSPropertyOp18
 70
     1
102
RTVSPropertyOp19
 70
     1
102
RTVSPropertyOp20
 70
     1
102
RTVSPropertyOp21
 70
     1
102
RTVSPropertyOp22
 70
     1
102
RTVSPropertyOp23
 70
     1
102
RTVSPropertyOp24
 70
     1
102
RTVSPropertyOp25
 70
     1
102
RTVSPropertyOp26
 70
     1
102
RTVSPropertyOp27
 70
     1
  0
XRECORD
  5
64
102
{ACAD_REACTORS
330
63
102
}
330
63
100
AcDbXrecord
280
     1
102
RTVSPropertyOp0
 70
     1
102
RTVSPropertyOp1
 70
     1
102
RTVSPropertyOp2
 70
     1
102
RTVSPropertyOp3
 70
     1
102
RTVSPropertyOp4
 70
     1
102
RTVSPropertyOp5
 70
     1
102
RTVSPropertyOp6
 70
     1
102
RTVSPropertyOp7
 70
     1
102
RTVSPropertyOp8
 70
     1
102
RTVSPropertyOp9
 70
     1
102
RTVSPropertyOp10
 70
     1
102
RTVSPropertyOp11
 70
     1
102
RTVSPropertyOp12
 70
     1
102
RTVSPropertyOp13
 70
     1
102
RTVSPropertyOp14
 70
     1
102
RTVSPropertyOp15
 70
     1
102
RTVSPropertyOp16
 70
     1
102
RTVSPropertyOp17
 70
     1
102
RTVSPropertyOp18
 70
     1
102
RTVSPropertyOp19
 70
     1
102
RTVSPropertyOp20
 70
     1
102
RTVSPropertyOp21
 70
     1
102
RTVSPropertyOp22
 70
     1
102
RTVSPropertyOp23
 70
     1
102
RTVSPropertyOp24
 70
     1
102
RTVSPropertyOp25
 70
     1
102
RTVSPropertyOp26
 70
     1
102
RTVSPropertyOp27
 70
     1
  0
ENDSEC
  0
EOF
